<svg width="826" height="368" viewBox="0 0 826 368" fill="none" xmlns="http://www.w3.org/2000/svg">
<path d="M161.914 149.202C160.753 151.107 158.993 152.501 156.634 153.385C154.351 154.234 151.833 154.868 149.079 155.286C146.347 155.649 143.58 155.936 140.778 156.146C137.997 156.301 135.622 156.641 133.651 157.164C133.006 157.364 132.163 157.585 131.123 157.826C130.159 158.032 129.201 158.305 128.251 158.643C127.321 158.926 126.464 159.267 125.68 159.668C124.951 160.09 124.521 160.561 124.388 161.081C124.075 161.912 124 162.866 124.165 163.941C124.33 165.016 124.577 166.122 124.908 167.26C125.26 168.342 125.605 169.359 125.943 170.309C126.337 171.281 126.578 172.068 126.668 172.671C126.722 173.198 126.69 173.788 126.571 174.439C126.529 175.056 126.437 175.719 126.297 176.426C126.179 177.077 126.077 177.767 125.992 178.495C125.908 179.223 125.879 179.972 125.906 180.741C126 182.17 126.223 183.679 126.574 185.267C126.925 186.855 127.304 188.454 127.71 190.064C128.138 191.618 128.537 193.161 128.909 194.694C129.358 196.193 129.705 197.622 129.953 198.981C130.179 200.396 130.354 201.95 130.476 203.642C130.653 205.355 130.89 206.995 131.185 208.563C131.371 209.582 131.615 210.529 131.919 211.403C132.299 212.243 132.606 213.024 132.841 213.745C133.076 214.467 133.217 215.185 133.264 215.899C133.388 216.579 133.293 217.334 132.979 218.166C132.311 219.94 131.008 221.38 129.072 222.486C127.135 223.593 124.891 224.424 122.338 224.982C119.786 225.539 117.053 225.902 114.14 226.071C111.249 226.184 108.52 226.201 105.955 226.12C104.401 226.041 103.015 226.025 101.794 226.072C100.629 226.139 99.8249 226.089 99.3813 225.922C97.0947 224.934 95.53 223.458 94.6873 221.494C93.8655 219.475 93.3698 217.262 93.2004 214.855C93.0519 212.394 93.0733 209.901 93.2647 207.377C93.5324 204.819 93.5847 202.496 93.4217 200.409C93.3334 199.299 93.0547 198.023 92.5855 196.58C92.1164 195.137 91.7963 193.718 91.6252 192.324C91.4397 191.304 91.3413 189.969 91.3301 188.319C91.3399 186.613 91.3532 184.814 91.3702 182.921C91.4426 181.049 91.47 179.128 91.4525 177.159C91.4903 175.21 91.4273 173.446 91.2635 171.864C91.176 170.249 90.9945 168.882 90.719 167.765C90.4435 166.649 90.0008 165.975 89.391 165.745C89.0583 165.62 88.5903 165.602 87.9869 165.691C87.4389 165.801 86.8701 165.967 86.2803 166.188C85.6905 166.409 85.1389 166.612 84.6255 166.799C84.1675 167.006 83.8449 167.106 83.6577 167.099C82.8044 167.347 82.0692 167.45 81.4522 167.407C80.9114 167.33 80.4052 167.329 79.9336 167.405C79.5174 167.501 79.1044 167.757 78.6946 168.172C78.2848 168.588 77.871 169.35 77.4531 170.458C76.9726 171.734 76.7066 173.279 76.655 175.096C76.659 176.934 76.5034 178.774 76.1883 180.618C75.8106 182.629 75.3288 184.663 74.743 186.721C74.2335 188.745 73.8457 190.53 73.5797 192.076C73.1537 193.878 72.7519 195.784 72.3741 197.795C72.0173 199.749 71.6327 201.694 71.2204 203.628C70.8845 205.527 70.5036 207.378 70.0776 209.18C69.6726 210.927 69.2193 212.465 68.7179 213.796C68.6134 214.073 68.37 214.551 67.9875 215.23C67.6259 215.854 67.1393 216.557 66.5279 217.339C65.9927 218.087 65.3362 218.821 64.5584 219.541C63.8015 220.205 62.9964 220.662 62.1431 220.91C61.6506 221.041 60.6555 221.077 59.1578 221.02C57.7156 220.982 56.1175 220.855 54.3635 220.637C52.6096 220.419 50.9042 220.157 49.2475 219.849C47.6462 219.562 46.4297 219.262 45.5981 218.948C44.822 218.656 43.8 218.176 42.5322 217.508C41.2989 216.916 40.031 216.249 38.7286 215.505C37.4262 214.761 36.2279 213.992 35.1336 213.2C34.0393 212.408 33.2709 211.675 32.8282 211.002C32.081 209.96 31.6464 208.594 31.5244 206.901C31.4023 205.209 31.4225 203.476 31.5849 201.701C31.7473 199.926 31.9788 198.304 32.2794 196.834C32.6354 195.386 32.9178 194.384 33.1268 193.83C34.0043 191.501 35.0413 189.17 36.2378 186.835C37.5106 184.466 38.773 182.124 40.0249 179.81C41.2977 177.441 42.522 175.116 43.6976 172.837C44.9495 170.523 46.0142 168.202 46.8917 165.873C47.3305 164.709 47.7765 163.358 48.2297 161.819C48.7384 160.301 49.1707 158.818 49.5268 157.37C49.6666 156.663 49.7337 155.896 49.7281 155.071C49.7435 154.191 49.8765 153.418 50.1272 152.752C50.6286 151.422 51.3418 149.95 52.2667 148.336C53.1916 146.721 54.1373 145.052 55.104 143.327C56.147 141.567 57.1623 139.797 58.1498 138.017C59.1583 136.181 59.9968 134.376 60.6654 132.602C61.71 129.83 62.4667 127.234 62.9352 124.815C63.4801 122.361 64.0764 120.275 64.7241 118.557C64.9748 117.891 65.4649 117.095 66.1945 116.167C66.9796 115.26 67.487 114.501 67.7168 113.892C67.9258 113.337 68.0861 112.828 68.1978 112.363C68.3304 111.843 68.4803 111.362 68.6474 110.918C69.1697 109.532 69.8716 108.594 70.7531 108.103C71.6345 107.612 72.5228 107.187 73.4178 106.828C74.3684 106.49 75.3052 106.02 76.2285 105.418C77.1517 104.816 77.9058 103.739 78.4908 102.187L79.2743 100.108C80.1518 97.7797 81.1912 96.1138 82.3924 95.1103C83.6146 94.0514 85.0058 93.4678 86.5662 93.3594C88.1819 93.2719 90.0086 93.5488 92.0462 94.1901C94.0838 94.8313 96.3776 95.6325 98.9278 96.5936C99.9257 96.9697 100.656 97.4667 101.12 98.0846C101.584 98.7025 101.884 99.4172 102.021 100.229C102.18 100.985 102.157 101.799 101.955 102.673C101.808 103.567 101.578 104.43 101.264 105.262C100.596 107.036 99.6704 108.903 98.4884 110.863C97.3063 112.824 96.2629 114.836 95.3581 116.901C94.2934 119.222 93.2427 121.422 92.2061 123.501C91.1696 125.579 90.133 127.658 89.0964 129.736C88.1361 131.78 87.1654 133.852 86.1843 135.951C85.2795 138.016 84.3883 140.213 83.5108 142.541C83.1138 143.595 82.8386 144.409 82.6851 144.984C82.5316 145.56 82.6211 145.91 82.9538 146.035C83.2864 146.161 83.8585 146.155 84.67 146.017C85.5369 145.901 86.4248 145.729 87.3335 145.502C88.3186 145.24 89.1996 145.002 89.9766 144.788C90.7745 144.519 91.3156 144.343 91.6 144.26C95.4085 143.227 98.9013 142.359 102.078 141.656C105.276 140.899 108.377 140.231 111.38 139.654C114.439 139.097 117.505 138.607 120.577 138.182C123.671 137.701 127.017 137.221 130.617 136.742C132.351 136.509 134.126 136.165 135.944 135.711C137.782 135.2 139.235 134.957 140.303 134.979C141.031 135.064 141.894 135.294 142.892 135.67C143.945 136.067 144.725 136.266 145.231 136.267C145.924 136.275 146.895 136.134 148.144 135.845C149.469 135.521 150.849 135.218 152.285 134.936C153.797 134.62 155.306 134.397 156.811 134.268C158.371 134.159 159.706 134.314 160.814 134.732C162.422 135.338 163.474 136.747 163.969 138.96C164.465 141.173 164.18 143.693 163.115 146.52C162.947 146.964 162.77 147.435 162.582 147.934C162.415 148.377 162.192 148.8 161.914 149.202Z" fill="black"/>
<path d="M218.253 237.389C218.272 237.839 218.259 238.332 218.213 238.87C218.176 239.359 218.11 239.868 218.016 240.397C217.794 241.647 217.442 242.923 216.963 244.227C216.491 245.482 215.948 246.724 215.333 247.954C214.765 249.192 214.158 250.373 213.512 251.498C212.922 252.584 212.369 253.601 211.853 254.551C210.829 256.402 210.06 257.803 209.544 258.752C209.027 259.702 208.558 260.387 208.136 260.808C207.723 261.181 207.248 261.345 206.71 261.299C206.221 261.261 205.471 261.153 204.462 260.973C203.741 260.845 202.833 260.51 201.739 259.968C200.654 259.378 199.575 258.616 198.501 257.681C197.436 256.698 196.473 255.56 195.612 254.266C194.799 252.981 194.333 251.559 194.213 250C194.265 249.712 194.446 249.248 194.758 248.609C195.07 247.97 195.299 247.242 195.444 246.425C195.49 245.888 195.531 245.101 195.566 244.066C195.65 243.04 195.702 241.908 195.724 240.672C195.754 239.388 195.76 238.1 195.742 236.807C195.78 235.475 195.749 234.254 195.649 233.145C195.549 232.036 195.39 231.115 195.173 230.383C195.005 229.658 194.752 229.266 194.415 229.206C193.166 228.984 192.218 229.014 191.573 229.296C190.984 229.538 190.459 229.842 189.997 230.206C189.544 230.522 189.043 230.83 188.494 231.129C188.002 231.388 187.251 231.428 186.241 231.249C185.28 231.078 184.239 230.793 183.12 230.396C182.008 229.95 180.753 229.479 179.354 228.982C178.011 228.446 176.515 227.932 174.867 227.44C173.227 226.901 171.398 226.451 169.379 226.092C168.321 225.904 167.351 225.781 166.469 225.723C165.595 225.617 164.992 225.659 164.661 225.848C164.055 226.187 163.521 226.96 163.058 228.167C162.596 229.374 162.155 230.734 161.737 232.247C161.328 233.711 160.943 235.18 160.582 236.653C160.229 238.078 159.832 239.198 159.389 240.012C159.267 240.139 159.024 240.393 158.658 240.775C158.302 241.108 157.88 241.529 157.392 242.037C156.914 242.498 156.422 243.03 155.918 243.635C155.422 244.191 155.003 244.737 154.66 245.271C153.852 246.466 153.082 247.867 152.35 249.472C151.675 251.039 150.921 252.491 150.087 253.831C149.293 255.227 148.398 256.357 147.401 257.222C146.404 258.086 145.209 258.394 143.815 258.146C142.901 257.983 142.075 257.613 141.334 257.035C140.642 256.466 140.035 255.837 139.512 255.149C139.03 254.518 138.643 253.903 138.352 253.306C138.053 252.757 137.897 252.382 137.883 252.181C137.486 251.069 137.054 250.149 136.588 249.421C136.179 248.654 135.781 247.964 135.395 247.349C135.008 246.735 134.722 246.114 134.536 245.486C134.359 244.809 134.351 244.014 134.514 243.101C134.574 242.765 134.679 242.312 134.829 241.744C134.932 241.167 135.087 240.575 135.294 239.967C135.454 239.35 135.633 238.762 135.831 238.202C136.03 237.643 136.212 237.179 136.376 236.811C136.515 236.588 136.726 236.378 137.009 236.18C137.349 235.943 137.665 235.702 137.956 235.456C138.296 235.219 138.584 234.997 138.819 234.791C139.11 234.545 139.282 234.278 139.333 233.99C139.401 233.605 139.345 233.223 139.165 232.844C139.032 232.473 139 232.096 139.069 231.711C139.086 231.615 139.123 231.547 139.179 231.508C139.236 231.468 139.273 231.4 139.29 231.304C140.027 229.947 140.852 228.656 141.765 227.429C142.725 226.212 143.642 224.961 144.515 223.678C145.444 222.356 146.282 220.992 147.028 219.587C147.83 218.143 148.442 216.516 148.863 214.706C149.017 213.841 149.184 212.904 149.363 211.894C149.591 210.893 149.819 209.892 150.046 208.891C150.33 207.851 150.63 206.862 150.945 205.927C151.317 204.951 151.74 204.109 152.213 203.4C152.287 203.264 152.546 203.062 152.99 202.794C153.483 202.534 154.017 202.183 154.591 201.74C155.175 201.248 155.703 200.648 156.176 199.939C156.706 199.19 157.061 198.311 157.241 197.301C157.335 196.772 157.385 196.211 157.391 195.617C157.398 195.023 157.452 194.437 157.555 193.86C157.675 193.187 157.869 192.652 158.139 192.253C158.464 191.815 158.806 191.43 159.163 191.096C159.576 190.724 159.966 190.346 160.331 189.965C160.744 189.592 161.099 189.135 161.393 188.592C161.958 187.651 162.362 186.632 162.607 185.534C162.86 184.389 163.085 183.264 163.282 182.158C163.487 181.004 163.712 179.879 163.957 178.782C164.249 177.693 164.678 176.678 165.242 175.737C165.415 175.322 165.696 174.999 166.084 174.771C166.48 174.494 166.872 174.242 167.26 174.013C167.704 173.745 168.105 173.444 168.462 173.111C168.819 172.778 169.044 172.347 169.138 171.818C169.206 171.433 169.227 171.04 169.199 170.638C169.228 170.197 169.285 169.736 169.371 169.255C169.567 168.15 170.009 167.063 170.695 165.995C171.429 164.935 172.206 163.908 173.028 162.913C173.858 161.871 174.608 160.863 175.277 159.891C176.002 158.879 176.446 157.917 176.608 157.004L176.865 155.561C177.027 154.648 177.555 153.775 178.447 152.941C179.387 152.117 180.575 151.435 182.009 150.897C183.453 150.311 185.058 149.927 186.827 149.745C188.651 149.524 190.501 149.58 192.376 149.914C193.434 150.102 194.345 150.413 195.111 150.847C195.934 151.241 196.748 151.683 197.553 152.174C198.359 152.664 199.236 153.168 200.186 153.684C201.144 154.152 202.292 154.529 203.63 154.817C204.399 154.954 205.205 155.023 206.048 155.024C206.947 154.985 207.847 154.947 208.746 154.909C209.654 154.822 210.554 154.784 211.445 154.793C212.344 154.755 213.203 154.809 214.02 154.954C214.453 155.031 214.98 155.273 215.602 155.682C216.28 156.05 216.941 156.515 217.585 157.076C218.278 157.645 218.909 158.278 219.479 158.975C220.098 159.68 220.592 160.388 220.962 161.098C221.63 162.358 221.959 163.855 221.948 165.589C221.986 167.331 221.905 169.177 221.707 171.125C221.558 173.082 221.432 175.044 221.33 177.009C221.229 178.975 221.378 180.787 221.777 182.445C221.906 183.113 222.092 183.741 222.334 184.33C222.585 184.87 222.804 185.455 222.99 186.083C223.224 186.72 223.368 187.44 223.424 188.243C223.536 189.007 223.494 189.942 223.297 191.047C223.058 192.393 222.742 193.751 222.35 195.119C221.966 196.44 221.663 197.725 221.441 198.975C221.261 199.984 221.232 200.847 221.352 201.563C221.521 202.287 221.703 202.939 221.897 203.519C222.1 204.051 222.279 204.579 222.434 205.103C222.637 205.635 222.678 206.237 222.559 206.91C222.396 207.824 222.068 208.832 221.574 209.934C221.081 211.036 220.736 212.141 220.539 213.246C220.351 214.304 220.348 215.295 220.531 216.22C220.713 217.146 220.679 218.032 220.429 218.881C220.219 219.785 219.888 220.669 219.437 221.531C218.986 222.393 218.516 223.227 218.025 224.032C217.535 224.838 217.068 225.648 216.626 226.462C216.184 227.276 215.89 228.091 215.744 228.908C215.625 229.581 215.678 230.26 215.903 230.945C216.128 231.63 216.402 232.323 216.723 233.025C217.045 233.727 217.362 234.453 217.675 235.203C217.996 235.905 218.189 236.634 218.253 237.389ZM193.681 213.677C194.047 213.295 194.289 212.768 194.409 212.095C194.529 211.422 194.545 210.631 194.459 209.723C194.372 208.815 194.253 207.951 194.102 207.131C194.007 206.271 193.895 205.507 193.765 204.839C193.636 204.171 193.593 203.717 193.636 203.477C193.721 202.996 193.879 202.528 194.109 202.073C194.338 201.618 194.5 201.126 194.594 200.597C194.817 199.347 194.779 198.026 194.481 196.634C194.183 195.242 193.791 193.958 193.306 192.78C192.878 191.563 192.444 190.519 192.004 189.647C191.572 188.727 191.31 188.11 191.217 187.796C191.018 186.967 190.914 186.155 190.907 185.361C190.956 184.526 190.948 183.731 190.884 182.976C190.868 182.229 190.763 181.566 190.569 180.986C190.374 180.406 189.966 179.912 189.345 179.503C187.87 182.217 186.332 184.869 184.73 187.461C183.177 190.061 181.615 192.709 180.044 195.406C178.53 198.062 177.047 200.824 175.595 203.69C174.199 206.517 172.923 209.513 171.764 212.68C173.49 212.738 175.246 212.902 177.033 213.17C178.829 213.391 180.762 213.536 182.832 213.607C183.129 213.61 183.844 213.638 184.975 213.69C186.106 213.743 187.29 213.78 188.526 213.801C189.81 213.831 190.95 213.836 191.946 213.814C192.99 213.802 193.568 213.756 193.681 213.677Z" fill="black"/>
<path d="M308.08 250.186C308.166 250.628 308.226 251.118 308.261 251.656C308.296 252.145 308.307 252.659 308.293 253.196C308.259 254.465 308.102 255.779 307.822 257.14C307.543 258.451 307.191 259.76 306.765 261.068C306.388 262.377 305.964 263.635 305.492 264.844C305.071 266.005 304.676 267.094 304.307 268.11C303.57 270.093 303.018 271.592 302.649 272.608C302.28 273.624 301.918 274.372 301.563 274.851C301.21 275.281 300.764 275.513 300.226 275.548C299.737 275.584 298.979 275.588 297.954 275.561C297.222 275.541 296.275 275.345 295.112 274.972C293.951 274.551 292.77 273.958 291.57 273.193C290.37 272.38 289.248 271.397 288.204 270.246C287.209 269.096 286.536 267.76 286.186 266.236C286.194 265.943 286.304 265.458 286.518 264.78C286.731 264.102 286.849 263.348 286.871 262.518C286.836 261.98 286.76 261.196 286.64 260.167C286.57 259.139 286.453 258.013 286.29 256.787C286.129 255.513 285.943 254.238 285.733 252.963C285.572 251.64 285.36 250.437 285.096 249.356C284.831 248.274 284.537 247.387 284.214 246.695C283.939 246.003 283.631 245.653 283.289 245.644C282.02 245.611 281.088 245.781 280.492 246.156C279.946 246.483 279.472 246.862 279.069 247.291C278.669 247.671 278.219 248.05 277.72 248.427C277.272 248.757 276.535 248.908 275.51 248.881C274.534 248.855 273.463 248.729 272.297 248.503C271.132 248.228 269.82 247.949 268.362 247.666C266.955 247.335 265.399 247.05 263.696 246.809C261.994 246.52 260.118 246.348 258.068 246.293C256.994 246.265 256.017 246.288 255.135 246.362C254.256 246.387 253.666 246.518 253.367 246.754C252.818 247.179 252.405 248.023 252.127 249.286C251.849 250.548 251.616 251.959 251.428 253.517C251.242 255.026 251.08 256.536 250.942 258.047C250.805 259.508 250.579 260.675 250.263 261.545C250.161 261.689 249.958 261.977 249.654 262.408C249.35 262.791 248.996 263.27 248.59 263.846C248.185 264.372 247.778 264.972 247.37 265.645C246.962 266.269 246.629 266.871 246.369 267.45C245.749 268.752 245.196 270.252 244.711 271.949C244.277 273.598 243.747 275.147 243.122 276.595C242.545 278.094 241.828 279.345 240.971 280.348C240.114 281.351 238.978 281.834 237.562 281.796C236.635 281.772 235.762 281.529 234.944 281.067C234.175 280.607 233.481 280.076 232.862 279.473C232.29 278.921 231.816 278.371 231.44 277.824C231.063 277.325 230.852 276.978 230.808 276.781C230.25 275.741 229.686 274.895 229.117 274.245C228.599 273.548 228.102 272.924 227.628 272.374C227.155 271.824 226.779 271.252 226.502 270.659C226.226 270.017 226.1 269.232 226.125 268.304C226.134 267.963 226.17 267.5 226.235 266.915C226.25 266.329 226.315 265.721 226.43 265.089C226.495 264.455 226.585 263.847 226.698 263.264C226.811 262.681 226.922 262.195 227.03 261.808C227.134 261.566 227.311 261.327 227.562 261.089C227.862 260.804 228.139 260.518 228.391 260.232C228.691 259.947 228.942 259.685 229.144 259.446C229.396 259.159 229.526 258.87 229.533 258.577C229.544 258.186 229.432 257.817 229.197 257.469C229.01 257.122 228.923 256.753 228.933 256.363C228.935 256.265 228.962 256.193 229.012 256.145C229.062 256.098 229.088 256.025 229.091 255.928C229.618 254.476 230.241 253.076 230.961 251.728C231.729 250.38 232.45 249.007 233.122 247.609C233.844 246.163 234.469 244.689 234.998 243.189C235.576 241.642 235.939 239.942 236.086 238.089C236.109 237.211 236.134 236.259 236.161 235.234C236.238 234.21 236.314 233.186 236.39 232.163C236.516 231.092 236.665 230.07 236.837 229.097C237.06 228.078 237.352 227.182 237.715 226.41C237.767 226.265 237.994 226.026 238.393 225.695C238.841 225.365 239.317 224.938 239.819 224.414C240.323 223.841 240.756 223.169 241.118 222.397C241.531 221.578 241.751 220.656 241.778 219.631C241.792 219.094 241.758 218.531 241.676 217.943C241.594 217.354 241.561 216.767 241.577 216.182C241.595 215.498 241.707 214.939 241.914 214.505C242.171 214.024 242.451 213.592 242.754 213.209C243.108 212.779 243.437 212.348 243.741 211.916C244.095 211.486 244.377 210.981 244.588 210.4C245.005 209.385 245.253 208.317 245.332 207.196C245.412 206.026 245.467 204.88 245.497 203.757C245.528 202.585 245.583 201.439 245.661 200.318C245.789 199.198 246.061 198.13 246.479 197.116C246.588 196.679 246.818 196.319 247.167 196.035C247.518 195.702 247.868 195.394 248.217 195.11C248.617 194.779 248.968 194.422 249.272 194.039C249.575 193.657 249.734 193.197 249.748 192.66C249.758 192.269 249.72 191.878 249.633 191.484C249.595 191.044 249.583 190.579 249.596 190.091C249.626 188.969 249.901 187.828 250.42 186.67C250.988 185.512 251.604 184.381 252.268 183.275C252.934 182.121 253.525 181.013 254.042 179.952C254.609 178.844 254.904 177.826 254.929 176.898L254.968 175.434C254.992 174.507 255.384 173.564 256.142 172.608C256.949 171.652 258.022 170.801 259.36 170.055C260.7 169.261 262.231 168.642 263.952 168.199C265.724 167.709 267.561 167.489 269.465 167.54C270.539 167.568 271.487 167.74 272.309 168.055C273.181 168.322 274.051 168.638 274.921 169.003C275.791 169.368 276.733 169.735 277.749 170.104C278.766 170.424 279.958 170.627 281.323 170.712C282.104 170.733 282.912 170.681 283.745 170.557C284.629 170.385 285.513 170.213 286.397 170.041C287.282 169.82 288.165 169.648 289.048 169.525C289.932 169.353 290.788 169.278 291.618 169.3C292.058 169.312 292.615 169.473 293.291 169.784C294.016 170.048 294.739 170.409 295.46 170.868C296.229 171.328 296.948 171.86 297.615 172.464C298.332 173.069 298.926 173.695 299.397 174.343C300.246 175.489 300.794 176.92 301.042 178.636C301.338 180.353 301.533 182.19 301.628 184.147C301.771 186.104 301.939 188.063 302.131 190.021C302.324 191.98 302.741 193.75 303.382 195.33C303.61 195.971 303.887 196.564 304.214 197.11C304.543 197.608 304.846 198.153 305.123 198.747C305.449 199.341 305.7 200.032 305.874 200.818C306.099 201.557 306.196 202.487 306.166 203.61C306.13 204.977 306.02 206.366 305.836 207.777C305.653 209.14 305.545 210.456 305.511 211.725C305.484 212.75 305.583 213.608 305.809 214.298C306.084 214.989 306.361 215.607 306.639 216.151C306.919 216.647 307.175 217.142 307.406 217.637C307.686 218.133 307.817 218.723 307.798 219.406C307.774 220.333 307.599 221.379 307.275 222.543C306.952 223.706 306.775 224.849 306.745 225.972C306.716 227.046 306.861 228.027 307.18 228.914C307.498 229.802 307.597 230.684 307.476 231.56C307.402 232.486 307.207 233.409 306.889 234.328C306.572 235.248 306.23 236.143 305.865 237.012C305.5 237.882 305.16 238.752 304.844 239.623C304.527 240.493 304.358 241.344 304.336 242.174C304.318 242.857 304.471 243.52 304.796 244.164C305.121 244.808 305.495 245.453 305.917 246.099C306.34 246.745 306.761 247.416 307.183 248.111C307.605 248.757 307.904 249.449 308.08 250.186ZM280.251 230.397C280.555 229.966 280.717 229.408 280.735 228.725C280.753 228.041 280.652 227.257 280.431 226.372C280.21 225.487 279.964 224.65 279.692 223.861C279.47 223.025 279.245 222.286 279.018 221.645C278.791 221.004 278.68 220.562 278.687 220.318C278.7 219.83 278.786 219.344 278.945 218.859C279.105 218.375 279.192 217.865 279.206 217.328C279.24 216.059 279.005 214.758 278.504 213.426C278.002 212.094 277.423 210.882 276.768 209.79C276.164 208.65 275.579 207.682 275.014 206.885C274.45 206.04 274.099 205.469 273.96 205.172C273.639 204.382 273.416 203.595 273.29 202.81C273.215 201.978 273.089 201.193 272.913 200.455C272.786 199.719 272.584 199.079 272.305 198.534C272.026 197.99 271.549 197.562 270.874 197.251C269.82 200.153 268.694 203.005 267.496 205.807C266.347 208.609 265.197 211.46 264.045 214.361C262.943 217.213 261.888 220.165 260.879 223.215C259.92 226.218 259.104 229.371 258.43 232.675C260.145 232.476 261.906 232.376 263.713 232.376C265.522 232.326 267.455 232.182 269.513 231.944C269.807 231.903 270.517 231.824 271.644 231.707C272.77 231.59 273.946 231.451 275.172 231.288C276.446 231.126 277.574 230.961 278.555 230.792C279.585 230.624 280.151 230.492 280.251 230.397Z" fill="black"/>
<path d="M393.654 180.485C393.563 181.068 393.421 181.741 393.227 182.504C393.068 183.207 392.868 183.947 392.628 184.723C392.422 185.439 392.186 186.139 391.919 186.821C391.687 187.443 391.445 187.941 391.194 188.315C390.646 189.075 389.836 189.808 388.764 190.511C387.693 191.214 386.645 191.911 385.621 192.601C384.583 193.245 383.7 193.896 382.971 194.555C382.276 195.153 382.02 195.782 382.203 196.441C382.386 197.099 382.78 197.877 383.384 198.773C383.975 199.622 384.596 200.489 385.247 201.372C385.932 202.195 386.574 202.954 387.172 203.649C387.805 204.284 388.231 204.723 388.451 204.966C389.429 206.113 390.61 207.356 391.996 208.694C393.382 210.031 394.536 211.358 395.459 212.672C396.209 213.73 396.851 214.946 397.385 216.318C397.966 217.677 398.627 218.962 399.37 220.175C400.079 221.448 400.832 222.606 401.629 223.652C402.427 224.697 402.989 225.808 403.316 226.984C403.604 228.019 403.582 229.216 403.25 230.575C402.906 231.887 402.413 233.215 401.773 234.559C401.12 235.855 400.354 237.107 399.473 238.315C398.627 239.463 397.839 240.366 397.11 241.025C396.705 241.391 396.061 241.9 395.177 242.551C394.328 243.142 393.368 243.789 392.296 244.492C391.225 245.196 390.07 245.872 388.831 246.52C387.579 247.122 386.365 247.586 385.189 247.913C383.166 248.475 381.338 248.097 379.704 246.777C378.057 245.411 376.497 243.539 375.025 241.161C373.6 238.77 372.19 236.07 370.797 233.062C369.45 230.041 368.018 227.17 366.501 224.45C365.719 223.096 364.854 221.715 363.904 220.306C363.002 218.885 361.947 217.278 360.739 215.485C359.95 214.286 359.257 213.161 358.66 212.11C358.111 211.046 357.554 210.137 356.989 209.382C356.425 208.627 355.842 208.079 355.24 207.74C354.626 207.353 353.896 207.277 353.049 207.513C350.979 208.088 349.56 208.635 348.791 209.153C348.01 209.623 347.613 210.291 347.6 211.156C347.574 211.975 347.781 213.083 348.221 214.481C348.66 215.879 349.059 217.77 349.418 220.154C349.764 222.49 350.138 225.022 350.541 227.747C350.932 230.426 351.506 233.13 352.265 235.859C352.71 237.458 353.293 238.918 354.015 240.237C354.736 241.557 355.248 242.758 355.549 243.84C355.98 245.392 356.047 246.818 355.75 248.117C355.486 249.356 354.965 250.489 354.186 251.517C353.395 252.497 352.41 253.329 351.231 254.011C350.052 254.694 348.781 255.225 347.417 255.604C345.723 256.075 344.134 256.466 342.65 256.778C341.212 257.076 339.904 257.11 338.725 256.881C337.533 256.604 336.481 256.01 335.569 255.098C334.69 254.126 333.97 252.628 333.407 250.605C332.635 247.83 332.121 245.16 331.864 242.596C331.641 239.972 331.461 237.412 331.325 234.916C331.175 232.373 330.985 229.866 330.754 227.396C330.571 224.913 330.126 222.402 329.419 219.861C329 218.356 328.522 216.817 327.983 215.243C327.431 213.623 326.926 211.99 326.468 210.343C326.023 208.744 325.639 207.178 325.314 205.647C324.99 204.115 324.682 202.553 324.391 200.962C324.088 199.323 323.728 197.573 323.312 195.712C322.896 193.852 322.361 191.745 321.707 189.393C321.353 188.123 321.029 187.047 320.733 186.167C320.438 185.286 320.111 184.566 319.753 184.007C319.428 183.387 319.006 182.871 318.486 182.458C317.966 182.046 317.298 181.648 316.482 181.267C316.121 181.063 315.757 180.937 315.388 180.887C315.02 180.838 314.638 180.741 314.243 180.597C313.896 180.441 313.562 180.153 313.243 179.735C312.924 179.317 312.647 178.684 312.412 177.838C312.215 177.132 312.13 176.37 312.156 175.552C312.216 174.674 312.4 173.786 312.708 172.89C313.003 171.946 313.436 171.04 314.005 170.173C314.562 169.258 315.275 168.451 316.145 167.753C316.947 167.175 317.966 166.74 319.203 166.447C320.426 166.106 321.539 165.645 322.543 165.062C323.653 164.499 324.65 163.893 325.533 163.242C326.464 162.578 327.232 162.06 327.838 161.688C330.206 160.726 332.684 159.885 335.271 159.165C336.212 158.904 337.136 158.672 338.043 158.471C338.997 158.256 339.92 158.025 340.814 157.776C343.402 157.056 345.909 156.232 348.337 155.304C350.765 154.375 353.069 153.456 355.248 152.546C357.428 151.636 359.496 150.782 361.454 149.984C363.411 149.186 365.237 148.552 366.93 148.081C367.918 147.806 368.725 147.607 369.349 147.484C370.021 147.348 370.678 147.343 371.321 147.468C371.951 147.546 372.704 147.793 373.58 148.208C374.442 148.577 375.612 149.138 377.089 149.893C378.038 150.39 378.837 150.801 379.485 151.128C380.18 151.441 380.811 151.798 381.379 152.197C381.933 152.55 382.473 153.033 382.998 153.647C383.558 154.201 384.206 154.984 384.944 155.995C385.582 156.832 386.067 157.938 386.399 159.316C386.765 160.633 387.279 161.934 387.941 163.22C388.469 164.391 388.995 165.461 389.518 166.431C390.088 167.387 390.598 168.31 391.048 169.198C391.532 170.026 391.962 170.844 392.338 171.652C392.702 172.412 393.001 173.216 393.237 174.063C393.498 175.004 393.673 175.994 393.759 177.035C393.88 178.015 393.845 179.165 393.654 180.485ZM378.249 176.482C378.137 176.26 377.913 176.094 377.579 175.984C377.278 175.815 376.907 175.664 376.465 175.534C376.057 175.343 375.596 175.142 375.081 174.931C374.553 174.672 374.052 174.33 373.579 173.904C372.586 173.065 371.901 172.242 371.524 171.434C371.147 170.627 370.689 170.07 370.147 169.765C369.125 169.187 367.779 168.903 366.109 168.911C364.439 168.919 362.851 169.133 361.346 169.551C360.452 169.8 359.406 170.141 358.21 170.576C357.047 170.95 355.803 171.397 354.478 171.918C353.139 172.391 351.767 172.925 350.361 173.518C348.955 174.112 347.549 174.706 346.143 175.299C345.464 175.59 344.515 176.006 343.297 176.547C342.127 177.075 340.969 177.651 339.824 178.273C338.727 178.882 337.79 179.523 337.014 180.195C336.272 180.807 335.966 181.348 336.097 181.818C336.306 182.571 336.629 183.368 337.066 184.21C337.503 185.051 337.846 185.741 338.098 186.279C338.744 187.873 339.276 189.423 339.695 190.929C340.147 192.374 340.712 193.585 341.389 194.562C342.171 194.092 342.955 193.722 343.741 193.452C344.515 193.136 345.254 192.879 345.96 192.683C346.901 192.422 347.848 192.183 348.802 191.969C349.756 191.754 350.798 191.49 351.927 191.176C353.103 190.849 354.4 190.412 355.82 189.865C357.239 189.319 358.681 188.766 360.147 188.206C361.647 187.586 363.154 186.99 364.667 186.417C366.167 185.797 367.617 185.267 369.015 184.828C369.673 184.645 370.315 184.492 370.94 184.369C371.611 184.232 372.229 184.086 372.794 183.929C373.5 183.733 374.22 183.406 374.954 182.948C375.688 182.491 376.349 181.952 376.937 181.332C377.525 180.713 377.963 180.008 378.25 179.219C378.537 178.429 378.563 177.611 378.328 176.764L378.249 176.482Z" fill="black"/>
<path d="M438.694 152.687C438.728 153.619 438.68 154.489 438.549 155.297C438.418 156.105 438.432 157.065 438.591 158.177C438.792 159.578 439.044 160.997 439.348 162.434C439.652 163.87 439.894 165.216 440.074 166.473C440.261 167.778 440.268 168.862 440.096 169.726C439.972 170.582 439.737 171.355 439.392 172.046C439.088 172.681 438.733 173.299 438.325 173.9C437.918 174.501 437.549 175.195 437.217 175.982C436.935 176.763 436.728 177.73 436.597 178.883C436.514 180.029 436.594 181.448 436.836 183.14C437.327 186.572 437.932 190.111 438.651 193.757C439.363 197.354 440.013 201.207 440.6 205.316C440.794 206.669 440.905 207.96 440.933 209.189C441.009 210.412 441.037 211.641 441.016 212.877C440.989 214.065 440.917 215.283 440.8 216.533C440.724 217.728 440.634 218.999 440.531 220.345C440.407 221.892 440.283 223.266 440.159 224.468C440.028 225.621 439.68 226.633 439.114 227.503C438.596 228.366 437.736 229.081 436.535 229.647C435.389 230.255 433.728 230.715 431.553 231.026C429.958 231.254 428.746 231.058 427.917 230.437C427.095 229.864 426.412 229.049 425.866 227.992C425.362 226.881 424.888 225.641 424.446 224.274C423.997 222.859 423.375 221.443 422.581 220.028C422.069 219.213 421.562 218.595 421.058 218.174C420.547 217.705 420.06 217.232 419.597 216.755C419.175 216.224 418.785 215.564 418.426 214.777C418.06 213.942 417.766 212.751 417.545 211.204C417.365 209.947 417.22 208.587 417.109 207.123C417.046 205.652 416.98 204.157 416.911 202.638C416.835 201.07 416.734 199.506 416.61 197.946C416.527 196.33 416.374 194.749 416.153 193.202C415.959 191.849 415.693 190.678 415.355 189.691C415.016 188.703 414.66 187.768 414.287 186.884C413.962 185.993 413.634 185.078 413.303 184.139C412.964 183.152 412.694 181.957 412.494 180.556C412.3 179.202 412.217 178.104 412.245 177.262C412.32 176.412 412.41 175.66 412.513 175.004C412.665 174.341 412.772 173.709 412.834 173.108C412.944 172.5 412.941 171.786 412.823 170.964C412.699 170.094 412.315 169.31 411.673 168.613C411.072 167.86 410.406 167.167 409.674 166.531C408.99 165.889 408.358 165.265 407.778 164.657C407.19 164.001 406.9 163.352 406.907 162.71C406.852 162.323 406.859 161.854 406.928 161.301C406.996 160.749 407.062 160.172 407.124 159.571C407.227 158.915 407.31 158.287 407.372 157.686C407.427 157.037 407.413 156.423 407.33 155.843C407.047 153.861 406.508 151.99 405.713 150.229C404.967 148.461 404.473 146.732 404.231 145.04C404.196 144.798 404.162 144.556 404.127 144.315C404.093 144.073 404.106 143.824 404.169 143.569C404.182 142.975 404.389 142.181 404.789 141.186C405.183 140.144 405.656 139.139 406.208 138.172C406.753 137.157 407.319 136.287 407.906 135.561C408.486 134.788 408.945 134.377 409.283 134.329C409.573 134.287 409.843 134.273 410.091 134.287C410.388 134.294 410.658 134.28 410.899 134.245C411.866 134.107 413.085 133.834 414.555 133.426C416.075 133.012 417.656 132.687 419.299 132.452C420.508 132.279 421.723 132.154 422.945 132.078C424.16 131.953 425.286 131.891 426.322 131.891C427.406 131.884 428.352 131.946 429.16 132.077C430.016 132.201 430.69 132.425 431.18 132.749C431.339 132.825 431.67 133.247 432.175 134.013C432.727 134.772 433.318 135.625 433.946 136.571C434.568 137.469 435.114 138.352 435.583 139.222C436.095 140.037 436.419 140.582 436.557 140.859C436.82 141.66 437.107 142.802 437.418 144.287C437.777 145.765 438.075 147.325 438.31 148.969C438.393 149.549 438.458 150.18 438.507 150.864C438.548 151.499 438.611 152.107 438.694 152.687Z" fill="black"/>
<path d="M545.559 176.092C545.266 176.336 544.785 176.519 544.116 176.643C543.504 176.728 542.82 176.8 542.065 176.858C541.357 176.925 540.649 176.992 539.941 177.059C539.29 177.087 538.76 177.137 538.349 177.21C537.23 177.349 536.217 177.459 535.308 177.538C534.447 177.626 533.697 177.785 533.059 178.014C532.429 178.195 531.906 178.47 531.49 178.839C531.13 179.17 530.888 179.671 530.763 180.343C530.647 180.967 530.59 181.677 530.591 182.472C530.601 183.219 530.611 183.965 530.621 184.712C530.631 185.459 530.646 186.182 530.665 186.881C530.684 187.58 530.644 188.193 530.546 188.721C530.448 189.249 530.335 189.725 530.206 190.148C530.078 190.571 529.978 190.975 529.906 191.359C529.782 192.031 529.794 192.629 529.945 193.154C530.105 193.631 530.308 194.14 530.555 194.683C530.81 195.177 531.086 195.7 531.38 196.252C531.675 196.803 531.88 197.437 531.995 198.154C532.137 198.727 532.249 199.592 532.332 200.75C532.423 201.859 532.469 203.084 532.468 204.425C532.515 205.775 532.485 207.135 532.379 208.506C532.321 209.886 532.185 211.152 531.971 212.304C531.658 213.984 531.081 215.218 530.24 216.005C529.437 216.849 528.491 217.393 527.403 217.638C526.354 217.939 525.244 218.031 524.074 217.913C522.943 217.851 521.898 217.731 520.937 217.553C519.401 217.267 518.018 216.563 516.786 215.44C515.546 214.365 514.531 213.009 513.743 211.373C512.955 209.736 512.427 207.9 512.16 205.863C511.884 203.875 511.947 201.801 512.349 199.641C512.421 199.257 512.501 198.824 512.59 198.344C512.679 197.864 512.821 197.369 513.015 196.859C511.989 196.768 511.211 196.946 510.681 197.393C510.199 197.85 509.79 198.445 509.455 199.177C509.13 199.861 508.795 200.594 508.451 201.374C508.155 202.163 507.705 202.849 507.1 203.432C506.315 204.18 505.07 204.867 503.364 205.494C501.697 206.177 499.885 206.709 497.927 207.09C495.959 207.519 493.995 207.799 492.034 207.931C490.072 208.063 488.419 208.004 487.075 207.754C485.635 207.486 484.556 207.012 483.838 206.332C483.168 205.661 482.555 204.951 481.999 204.202C481.483 203.51 480.865 202.824 480.147 202.144C479.477 201.474 478.446 201.009 477.054 200.75L475.182 200.402C473.166 200.027 471.415 199.428 469.929 198.605C468.491 197.791 467.147 196.871 465.898 195.844C464.706 194.778 463.546 193.668 462.42 192.515C461.341 191.371 460.129 190.276 458.784 189.232C458.048 188.648 457.35 187.996 456.689 187.277C456.028 186.559 455.466 185.709 455.002 184.729C454.548 183.701 454.249 182.503 454.106 181.135C454.011 179.777 454.142 178.137 454.5 176.217C454.66 175.353 454.875 174.598 455.144 173.953C455.422 173.26 455.72 172.595 456.037 171.958C456.354 171.322 456.647 170.681 456.916 170.036C457.185 169.391 457.39 168.684 457.533 167.916C457.632 167.388 457.697 166.903 457.729 166.462C457.762 166.021 457.822 165.561 457.912 165.081C458.072 164.217 458.364 163.451 458.786 162.785C459.264 162.079 459.739 161.398 460.209 160.74C460.736 160.044 461.215 159.338 461.645 158.623C462.124 157.918 462.449 157.109 462.618 156.197C462.806 155.189 462.888 154.211 462.866 153.263C462.852 152.267 462.815 151.267 462.754 150.262C462.701 149.21 462.672 148.161 462.668 147.117C462.672 146.026 462.782 144.904 462.996 143.752C463.157 142.887 463.443 141.749 463.855 140.335C464.267 138.922 464.79 137.579 465.424 136.306C465.6 135.892 465.892 135.524 466.299 135.203C466.707 134.881 466.994 134.537 467.162 134.171C467.44 133.478 467.661 132.824 467.825 132.208C468.046 131.554 468.238 130.92 468.402 130.304C468.614 129.698 468.822 129.116 469.025 128.558C469.237 127.952 469.545 127.363 469.949 126.793C470.802 125.412 471.781 124.153 472.886 123.018C474.048 121.844 474.951 120.596 475.594 119.275C476.21 118.098 476.691 116.847 477.037 115.521C477.383 114.194 477.831 112.986 478.382 111.897C478.707 111.212 479.137 110.373 479.669 109.38C480.21 108.338 480.804 107.282 481.451 106.21C482.145 105.147 482.878 104.141 483.651 103.192C484.423 102.243 485.208 101.495 486.005 100.948C486.802 100.401 487.568 100.022 488.303 99.8108C489.037 99.5998 489.83 99.4741 490.682 99.4339C491.534 99.3936 492.477 99.3953 493.512 99.4387C494.547 99.4822 495.768 99.4609 497.174 99.3749C498.476 99.319 499.992 99.1788 501.723 98.9542C503.453 98.7297 505.203 98.5337 506.972 98.3661C508.751 98.1506 510.463 98.0221 512.11 97.9807C513.765 97.8912 515.169 97.9537 516.321 98.1679C518.002 98.4804 519.562 99.168 521.004 100.231C522.454 101.245 523.81 102.367 525.071 103.595C526.39 104.784 527.636 105.959 528.811 107.121C529.994 108.235 531.207 109.057 532.45 109.586C533.597 110.097 534.713 110.503 535.799 110.805C536.942 111.067 538.009 111.34 538.999 111.623C540.038 111.916 540.962 112.286 541.773 112.735C542.64 113.145 543.343 113.772 543.881 114.617C544.35 115.3 544.659 116.177 544.807 117.248C544.956 118.318 545.034 119.5 545.042 120.793C545.059 122.038 545.034 123.374 544.967 124.802C544.909 126.182 544.884 127.518 544.892 128.811C544.988 130.964 545.115 132.95 545.274 134.767C545.489 136.546 545.534 138.044 545.406 139.262C545.344 139.598 545.223 140.246 545.045 141.206C544.875 142.118 544.64 143.117 544.338 144.203C544.094 145.251 543.81 146.241 543.488 147.174C543.213 148.116 542.94 148.786 542.667 149.182C542.167 149.735 541.631 150.082 541.058 150.224C540.542 150.327 539.916 150.359 539.178 150.321C538.497 150.244 537.72 150.149 536.847 150.036C536.022 149.933 535.059 149.903 533.958 149.946C533.04 150.074 532.21 150.267 531.466 150.526C530.723 150.785 530.003 151.048 529.308 151.316C528.669 151.545 528.031 151.774 527.392 152.003C526.81 152.193 526.179 152.249 525.498 152.172C525.21 152.119 524.632 151.887 523.765 151.477C522.954 151.029 522.107 150.648 521.221 150.334C520.078 150.072 518.959 149.814 517.864 149.56C516.777 149.259 515.796 148.928 514.92 148.566C514.052 148.156 513.375 147.658 512.888 147.071C512.45 146.492 512.311 145.771 512.471 144.907C512.596 144.235 512.82 143.432 513.143 142.499C513.465 141.566 513.743 140.475 513.975 139.227C514.234 137.835 514.226 136.542 513.951 135.349C513.685 134.107 513.642 133.006 513.82 132.046C514.017 130.99 514.213 129.934 514.409 128.878C514.606 127.822 514.612 126.855 514.428 125.976C514.252 125.049 513.782 124.242 513.016 123.553C512.298 122.873 511.099 122.377 509.419 122.065C508.507 121.895 507.49 121.755 506.368 121.646C505.246 121.537 504.167 121.46 503.132 121.417C502.097 121.373 501.154 121.372 500.302 121.412C499.498 121.461 498.959 121.559 498.683 121.707C498.066 122.089 497.529 123.106 497.072 124.76C496.625 126.365 495.995 128.284 495.182 130.517C494.683 131.865 494.04 133.185 493.253 134.479C492.514 135.782 491.909 137.035 491.437 138.239C491.018 139.154 490.748 140.072 490.626 140.993C490.513 141.866 490.252 142.737 489.843 143.604C489.64 144.162 489.366 144.832 489.022 145.612C488.687 146.344 488.339 147.149 487.977 148.025C487.616 148.901 487.25 149.802 486.879 150.726C486.565 151.612 486.333 152.462 486.181 153.278C486.029 154.094 486.035 154.865 486.198 155.591C486.418 156.278 486.439 157.101 486.26 158.061C486.001 159.453 485.484 160.897 484.71 162.391C483.983 163.895 483.477 165.415 483.191 166.951C483.066 167.624 483.107 168.202 483.315 168.688C483.58 169.134 483.641 169.742 483.498 170.51C483.417 170.942 483.289 171.365 483.113 171.779C482.936 172.193 482.803 172.641 482.714 173.121C482.562 173.937 482.7 174.931 483.128 176.103C483.604 177.284 484.156 178.455 484.784 179.614C485.47 180.735 486.149 181.756 486.823 182.675C487.553 183.556 488.116 184.133 488.512 184.405C489.113 184.914 489.882 185.454 490.818 186.026C491.812 186.558 492.79 187.038 493.754 187.466C494.717 187.893 495.57 188.251 496.311 188.538C497.1 188.833 497.567 188.995 497.711 189.021C499.727 189.396 501.531 189.31 503.123 188.761C504.724 188.165 506.149 187.313 507.398 186.204C508.704 185.056 509.874 183.709 510.906 182.163C511.948 180.569 512.917 178.961 513.815 177.34C511.172 177.395 508.852 177.584 506.855 177.908C504.858 178.232 503.019 178.238 501.339 177.925C500.187 177.711 499.191 177.327 498.35 176.774C497.762 176.465 497.192 175.788 496.642 174.742C496.148 173.657 495.725 172.461 495.372 171.154C495.028 169.799 494.785 168.437 494.642 167.07C494.508 165.654 494.534 164.442 494.722 163.434C494.918 162.378 495.359 161.343 496.045 160.328C496.778 159.322 497.59 158.43 498.479 157.652C499.417 156.882 500.343 156.31 501.257 155.933C502.229 155.518 503.026 155.368 503.65 155.484C505.138 155.761 506.73 156.281 508.426 157.043C510.122 157.805 512.098 158.396 514.354 158.816C516.995 159.307 519.705 159.687 522.486 159.956C525.315 160.234 528.002 160.609 530.546 161.082C531.218 161.207 531.853 161.4 532.45 161.66C533.047 161.92 533.706 162.117 534.426 162.251C535.836 162.414 537.273 162.433 538.736 162.308C540.2 162.183 541.604 162.245 542.948 162.495C544.772 162.834 546.06 163.918 546.813 165.747C547.574 167.527 547.687 169.858 547.152 172.738C547.018 173.458 546.821 174.117 546.561 174.714C546.301 175.311 545.967 175.771 545.559 176.092Z" fill="black"/>
<path d="M637.482 182.877C637.444 183.326 637.368 183.814 637.254 184.341C637.154 184.822 637.024 185.318 636.864 185.831C636.484 187.042 635.973 188.264 635.332 189.495C634.704 190.68 634.007 191.843 633.24 192.985C632.52 194.141 631.768 195.235 630.983 196.269C630.26 197.27 629.582 198.209 628.949 199.085C627.698 200.791 626.757 202.082 626.124 202.959C625.491 203.835 624.939 204.455 624.466 204.819C624.009 205.136 623.517 205.237 622.989 205.123C622.509 205.024 621.779 204.821 620.801 204.514C620.102 204.295 619.244 203.848 618.228 203.171C617.227 202.448 616.253 201.554 615.307 200.49C614.376 199.38 613.566 198.128 612.877 196.735C612.234 195.357 611.953 193.887 612.032 192.326C612.12 192.046 612.359 191.61 612.75 191.016C613.141 190.422 613.46 189.729 613.708 188.937C613.822 188.41 613.963 187.635 614.13 186.613C614.343 185.605 614.539 184.49 614.718 183.266C614.911 181.996 615.081 180.719 615.228 179.435C615.435 178.118 615.56 176.904 615.602 175.791C615.643 174.678 615.603 173.745 615.482 172.99C615.406 172.25 615.206 171.829 614.88 171.727C613.668 171.348 612.724 171.257 612.048 171.454C611.434 171.62 610.874 171.854 610.37 172.156C609.881 172.412 609.344 172.654 608.762 172.88C608.24 173.075 607.49 173.019 606.512 172.713C605.58 172.421 604.584 172.006 603.524 171.469C602.479 170.886 601.294 170.259 599.969 169.588C598.705 168.885 597.287 168.185 595.715 167.487C594.157 166.743 592.4 166.065 590.443 165.452C589.418 165.13 588.471 164.885 587.603 164.715C586.75 164.499 586.147 164.464 585.794 164.609C585.151 164.868 584.522 165.566 583.91 166.705C583.297 167.843 582.687 169.136 582.08 170.583C581.488 171.984 580.919 173.392 580.373 174.807C579.842 176.176 579.305 177.236 578.763 177.987C578.626 178.097 578.352 178.318 577.941 178.65C577.544 178.935 577.072 179.299 576.524 179.741C575.991 180.137 575.436 180.603 574.859 181.138C574.296 181.627 573.811 182.115 573.403 182.601C572.449 183.684 571.507 184.975 570.577 186.474C569.708 187.942 568.775 189.287 567.778 190.509C566.812 191.793 565.78 192.8 564.682 193.53C563.583 194.261 562.358 194.414 561.007 193.991C560.122 193.713 559.349 193.241 558.688 192.573C558.074 191.92 557.551 191.219 557.121 190.471C556.722 189.783 556.417 189.124 556.205 188.495C555.978 187.912 555.871 187.52 555.882 187.319C555.63 186.166 555.319 185.198 554.95 184.417C554.642 183.604 554.335 182.869 554.029 182.21C553.724 181.552 553.519 180.899 553.415 180.252C553.325 179.559 553.419 178.77 553.696 177.884C553.799 177.558 553.961 177.123 554.182 176.578C554.358 176.019 554.587 175.451 554.87 174.875C555.106 174.284 555.358 173.723 555.627 173.193C555.895 172.663 556.134 172.227 556.344 171.883C556.511 171.679 556.747 171.497 557.053 171.337C557.42 171.145 557.764 170.946 558.084 170.74C558.451 170.548 558.765 170.364 559.024 170.19C559.345 169.983 559.549 169.74 559.636 169.461C559.753 169.088 559.746 168.702 559.615 168.303C559.531 167.918 559.548 167.54 559.664 167.167C559.694 167.074 559.739 167.011 559.8 166.979C559.861 166.947 559.906 166.884 559.936 166.791C560.839 165.539 561.822 164.363 562.883 163.263C563.991 162.178 565.059 161.054 566.088 159.893C567.179 158.699 568.183 157.453 569.102 156.155C570.081 154.824 570.895 153.288 571.543 151.547C571.806 150.708 572.091 149.8 572.397 148.821C572.751 147.857 573.104 146.894 573.457 145.93C573.871 144.934 574.294 143.992 574.726 143.104C575.219 142.184 575.746 141.402 576.305 140.759C576.396 140.634 576.678 140.466 577.153 140.257C577.675 140.062 578.249 139.781 578.876 139.415C579.517 139.002 580.117 138.474 580.677 137.83C581.298 137.155 581.762 136.328 582.068 135.35C582.229 134.837 582.35 134.287 582.432 133.698C582.514 133.11 582.643 132.536 582.818 131.977C583.022 131.325 583.283 130.818 583.601 130.457C583.98 130.064 584.368 129.725 584.764 129.44C585.222 129.123 585.656 128.798 586.067 128.467C586.525 128.15 586.934 127.741 587.296 127.24C587.975 126.378 588.506 125.419 588.888 124.362C589.285 123.258 589.652 122.17 589.988 121.099C590.338 119.981 590.704 118.893 591.087 117.836C591.516 116.793 592.07 115.841 592.749 114.98C592.974 114.589 593.293 114.306 593.707 114.128C594.135 113.904 594.556 113.704 594.97 113.526C595.445 113.317 595.881 113.07 596.277 112.785C596.673 112.499 596.952 112.101 597.112 111.588C597.229 111.215 597.299 110.828 597.323 110.426C597.408 109.992 597.523 109.542 597.669 109.076C598.005 108.004 598.581 106.983 599.397 106.01C600.26 105.053 601.163 104.133 602.104 103.251C603.06 102.322 603.932 101.419 604.719 100.54C605.567 99.6286 606.13 98.7304 606.408 97.8451L606.846 96.4473C607.123 95.562 607.757 94.7629 608.748 94.05C609.786 93.3518 611.05 92.827 612.542 92.4757C614.048 92.0778 615.69 91.9013 617.466 91.9464C619.304 91.9595 621.132 92.2507 622.949 92.8201C623.974 93.1413 624.839 93.5658 625.544 94.0936C626.309 94.5893 627.06 95.1317 627.797 95.7207C628.533 96.3096 629.34 96.9205 630.216 97.5532C631.107 98.1394 632.197 98.6602 633.487 99.1156C634.233 99.3492 635.024 99.5202 635.859 99.6286C636.757 99.705 637.654 99.7815 638.551 99.8579C639.462 99.8877 640.36 99.9641 641.242 100.087C642.139 100.164 642.984 100.326 643.776 100.574C644.195 100.706 644.687 101.013 645.252 101.497C645.878 101.949 646.475 102.494 647.042 103.133C647.656 103.786 648.202 104.494 648.679 105.257C649.203 106.035 649.603 106.8 649.879 107.552C650.382 108.887 650.517 110.413 650.286 112.131C650.101 113.864 649.787 115.685 649.342 117.592C648.945 119.514 648.57 121.444 648.219 123.381C647.868 125.317 647.785 127.134 647.97 128.829C648.014 129.508 648.118 130.154 648.284 130.769C648.464 131.337 648.606 131.945 648.71 132.592C648.861 133.253 648.913 133.985 648.866 134.789C648.88 135.561 648.719 136.483 648.383 137.555C647.974 138.859 647.488 140.165 646.925 141.473C646.377 142.734 645.913 143.97 645.533 145.181C645.226 146.16 645.087 147.012 645.116 147.737C645.191 148.477 645.288 149.147 645.407 149.747C645.541 150.301 645.651 150.847 645.738 151.386C645.871 151.939 645.836 152.542 645.632 153.195C645.354 154.08 644.901 155.038 644.271 156.069C643.641 157.099 643.158 158.15 642.822 159.222C642.501 160.247 642.372 161.23 642.435 162.171C642.498 163.112 642.352 163.987 641.996 164.797C641.672 165.667 641.232 166.501 640.675 167.299C640.118 168.097 639.545 168.864 638.956 169.6C638.367 170.337 637.801 171.081 637.259 171.832C636.716 172.583 636.321 173.354 636.073 174.147C635.869 174.799 635.835 175.479 635.971 176.187C636.107 176.895 636.29 177.617 636.52 178.355C636.749 179.092 636.972 179.852 637.187 180.636C637.416 181.373 637.515 182.12 637.482 182.877ZM616.128 156.23C616.539 155.899 616.847 155.407 617.051 154.754C617.255 154.102 617.373 153.32 617.402 152.408C617.432 151.497 617.424 150.624 617.378 149.791C617.393 148.926 617.379 148.154 617.336 147.475C617.293 146.797 617.308 146.341 617.381 146.108C617.527 145.642 617.743 145.198 618.029 144.776C618.314 144.353 618.538 143.886 618.698 143.374C619.078 142.162 619.209 140.847 619.09 139.428C618.972 138.01 618.747 136.686 618.416 135.456C618.146 134.195 617.848 133.104 617.523 132.183C617.212 131.216 617.03 130.57 616.978 130.247C616.886 129.399 616.886 128.581 616.98 127.791C617.135 126.97 617.229 126.181 617.262 125.424C617.341 124.681 617.321 124.009 617.202 123.409C617.083 122.809 616.741 122.267 616.176 121.783C614.368 124.287 612.505 126.722 610.587 129.089C608.715 131.47 606.828 133.898 604.927 136.372C603.088 138.815 601.265 141.365 599.46 144.023C597.716 146.649 596.068 149.459 594.516 152.452C596.22 152.73 597.941 153.116 599.68 153.609C601.433 154.056 603.332 154.447 605.376 154.78C605.671 154.821 606.375 154.94 607.491 155.136C608.606 155.332 609.776 155.519 610.999 155.698C612.269 155.891 613.399 156.04 614.389 156.146C615.426 156.266 616.006 156.294 616.128 156.23Z" fill="black"/>
<path d="M739.628 186.173C739.189 186.567 738.654 186.999 738.022 187.469C737.454 187.913 736.832 188.36 736.155 188.81C735.543 189.235 734.918 189.628 734.28 189.989C733.707 190.324 733.205 190.557 732.775 190.689C731.869 190.932 730.778 190.988 729.503 190.856C728.228 190.724 726.976 190.603 725.746 190.49C724.535 190.334 723.439 190.28 722.458 190.331C721.541 190.356 720.945 190.681 720.671 191.307C720.397 191.934 720.211 192.785 720.113 193.861C720.034 194.893 719.969 195.957 719.915 197.053C719.926 198.124 719.944 199.118 719.969 200.035C720.059 200.927 720.112 201.536 720.128 201.863C720.162 203.37 720.293 205.08 720.522 206.992C720.751 208.905 720.808 210.662 720.693 212.264C720.606 213.559 720.336 214.906 719.883 216.307C719.474 217.727 719.175 219.142 718.985 220.551C718.73 221.985 718.582 223.359 718.539 224.673C718.497 225.987 718.232 227.204 717.742 228.322C717.311 229.306 716.538 230.22 715.422 231.064C714.326 231.864 713.106 232.582 711.761 233.219C710.436 233.812 709.05 234.298 707.605 234.678C706.223 235.033 705.042 235.235 704.061 235.286C703.515 235.313 702.695 235.301 701.599 235.247C700.567 235.169 699.414 235.064 698.139 234.932C696.864 234.801 695.542 234.595 694.172 234.315C692.821 233.991 691.587 233.584 690.469 233.094C688.545 232.252 687.367 230.804 686.934 228.749C686.521 226.649 686.494 224.212 686.856 221.439C687.261 218.685 687.874 215.702 688.694 212.49C689.558 209.297 690.262 206.167 690.805 203.1C691.054 201.557 691.256 199.939 691.41 198.248C691.608 196.576 691.806 194.664 692.002 192.511C692.147 191.082 692.321 189.772 692.523 188.581C692.769 187.41 692.911 186.353 692.951 185.411C692.99 184.468 692.884 183.676 692.632 183.033C692.4 182.345 691.882 181.825 691.077 181.472C689.109 180.611 687.663 180.138 686.741 180.054C685.838 179.925 685.108 180.192 684.551 180.855C684.014 181.473 683.475 182.462 682.932 183.824C682.389 185.185 681.504 186.903 680.276 188.978C679.068 191.007 677.759 193.206 676.35 195.574C674.96 197.897 673.697 200.356 672.562 202.95C671.896 204.471 671.426 205.971 671.152 207.45C670.878 208.929 670.515 210.183 670.065 211.212C669.419 212.688 668.57 213.835 667.519 214.654C666.532 215.448 665.412 215.998 664.159 216.302C662.926 216.562 661.637 216.584 660.293 216.369C658.948 216.153 657.627 215.761 656.33 215.194C654.719 214.489 653.24 213.788 651.893 213.092C650.59 212.415 649.554 211.615 648.786 210.692C648.037 209.725 647.596 208.6 647.465 207.316C647.398 206.008 647.786 204.392 648.628 202.468C649.783 199.829 651.071 197.435 652.491 195.285C653.976 193.11 655.454 191.012 656.925 188.991C658.416 186.925 659.852 184.862 661.233 182.801C662.659 180.76 663.901 178.532 664.958 176.117C665.585 174.685 666.186 173.19 666.762 171.63C667.358 170.025 667.999 168.44 668.684 166.874C669.35 165.353 670.041 163.897 670.756 162.505C671.472 161.112 672.221 159.708 673.001 158.29C673.801 156.828 674.627 155.244 675.48 153.539C676.333 151.834 677.249 149.863 678.228 147.626C678.757 146.418 679.185 145.38 679.512 144.51C679.839 143.641 680.041 142.876 680.116 142.216C680.256 141.531 680.255 140.865 680.112 140.216C679.97 139.567 679.703 138.837 679.312 138.027C679.161 137.641 678.958 137.312 678.704 137.041C678.449 136.77 678.215 136.454 677.999 136.093C677.829 135.752 677.752 135.318 677.769 134.793C677.786 134.267 677.97 133.602 678.323 132.797C678.616 132.126 679.032 131.481 679.569 130.864C680.17 130.221 680.873 129.649 681.678 129.149C682.503 128.604 683.411 128.174 684.4 127.862C685.41 127.504 686.472 127.329 687.588 127.338C688.575 127.397 689.64 127.703 690.783 128.257C691.946 128.766 693.101 129.111 694.247 129.293C695.463 129.559 696.62 129.719 697.716 129.772C698.856 129.845 699.779 129.929 700.483 130.024C702.927 130.774 705.379 131.687 707.839 132.764C708.734 133.155 709.596 133.559 710.426 133.976C711.301 134.412 712.164 134.817 713.014 135.189C715.474 136.265 717.938 137.211 720.407 138.025C722.876 138.839 725.242 139.581 727.507 140.253C729.771 140.924 731.914 141.569 733.936 142.187C735.957 142.805 737.773 143.467 739.383 144.172C740.323 144.583 741.073 144.938 741.635 145.237C742.242 145.556 742.755 145.967 743.174 146.471C743.613 146.929 744.041 147.596 744.457 148.471C744.893 149.302 745.445 150.476 746.113 151.994C746.535 152.979 746.894 153.802 747.19 154.465C747.531 155.147 747.796 155.822 747.983 156.49C748.19 157.114 748.303 157.83 748.322 158.638C748.406 159.421 748.414 160.437 748.347 161.687C748.313 162.738 747.99 163.902 747.377 165.18C746.829 166.432 746.405 167.766 746.106 169.181C745.776 170.422 745.507 171.584 745.3 172.666C745.138 173.767 744.95 174.804 744.738 175.777C744.589 176.725 744.406 177.631 744.188 178.495C743.989 179.314 743.714 180.126 743.361 180.931C742.97 181.826 742.479 182.704 741.889 183.565C741.363 184.401 740.61 185.27 739.628 186.173ZM730.215 173.338C730.268 173.095 730.2 172.825 730.01 172.529C729.884 172.207 729.691 171.857 729.431 171.476C729.235 171.071 729.005 170.623 728.739 170.134C728.493 169.6 728.321 169.018 728.224 168.389C727.983 167.112 727.972 166.041 728.191 165.177C728.409 164.313 728.405 163.592 728.178 163.013C727.751 161.92 726.887 160.849 725.587 159.8C724.287 158.751 722.922 157.914 721.49 157.287C720.64 156.915 719.614 156.519 718.412 156.1C717.274 155.655 716.027 155.216 714.671 154.782C713.335 154.304 711.934 153.851 710.469 153.423C709.004 152.995 707.539 152.567 706.074 152.139C705.364 151.935 704.366 151.658 703.08 151.308C701.839 150.978 700.578 150.693 699.297 150.452C698.062 150.231 696.931 150.136 695.905 150.166C694.943 150.172 694.364 150.398 694.168 150.845C693.855 151.561 693.602 152.383 693.409 153.311C693.216 154.239 693.047 154.991 692.901 155.567C692.395 157.211 691.828 158.749 691.202 160.18C690.64 161.587 690.312 162.882 690.22 164.068C691.123 164.197 691.964 164.405 692.744 164.693C693.544 164.936 694.279 165.205 694.95 165.499C695.845 165.89 696.73 166.304 697.605 166.74C698.48 167.177 699.454 167.63 700.528 168.1C701.646 168.589 702.928 169.07 704.373 169.543C705.819 170.016 707.286 170.498 708.776 170.991C710.331 171.458 711.876 171.947 713.41 172.459C714.965 172.926 716.423 173.431 717.784 173.974C718.411 174.248 719.005 174.535 719.567 174.834C720.173 175.153 720.745 175.43 721.282 175.665C721.953 175.958 722.717 176.16 723.576 176.269C724.434 176.378 725.287 176.378 726.134 176.269C726.981 176.16 727.765 175.891 728.487 175.46C729.208 175.03 729.745 174.412 730.097 173.607L730.215 173.338Z" fill="black"/>
<path d="M509.65 280.451C509.579 281.326 509.415 282.152 509.158 282.931C508.9 283.71 508.768 284.49 508.76 285.271C508.757 285.646 508.783 286.131 508.84 286.725C508.897 287.319 508.922 287.96 508.915 288.648C508.904 289.835 508.612 290.895 508.041 291.827C507.469 292.759 506.742 293.627 505.859 294.431C504.977 295.235 503.985 296.022 502.883 296.793C501.814 297.533 500.744 298.304 499.673 299.106C498.918 299.693 498.287 300.28 497.781 300.869C497.276 301.458 496.692 301.984 496.032 302.446C495.371 302.909 494.539 303.276 493.537 303.547C492.534 303.85 491.142 303.993 489.36 303.976C488.392 303.966 487.393 303.879 486.363 303.712C485.364 303.578 484.366 303.412 483.367 303.215C482.369 303.018 481.402 302.837 480.466 302.671C479.561 302.538 478.718 302.467 477.937 302.459C477.281 302.453 476.655 302.51 476.06 302.629C475.465 302.748 474.871 302.805 474.277 302.799C474.027 302.797 473.591 302.683 472.968 302.458C472.345 302.265 471.676 301.977 470.961 301.595C470.245 301.245 469.531 300.816 468.817 300.309C468.103 299.771 467.515 299.171 467.053 298.511C466.621 297.913 466.346 297.285 466.227 296.628C466.14 295.939 465.943 295.281 465.637 294.653C465.207 293.868 464.636 293.112 463.924 292.387C463.243 291.661 462.642 290.796 462.121 289.791C461.661 288.88 461.265 287.783 460.934 286.498C460.602 285.214 460.224 283.944 459.798 282.69C459.252 281.029 458.704 279.539 458.154 278.221C457.635 276.903 457.38 275.792 457.389 274.885C457.399 273.854 457.55 272.762 457.842 271.608C458.135 270.424 458.521 269.333 458.999 268.338C459.478 267.311 460.017 266.473 460.617 265.822C461.248 265.172 461.892 264.85 462.548 264.856C462.892 264.86 463.251 264.926 463.625 265.054C463.998 265.183 464.388 265.249 464.795 265.253C465.326 265.196 465.765 265.044 466.112 264.797C466.489 264.551 466.881 264.429 467.287 264.433C467.693 264.437 468.271 264.521 469.019 264.684C469.768 264.817 470.532 264.996 471.311 265.222C472.121 265.449 472.869 265.675 473.554 265.9C474.271 266.126 474.8 266.334 475.142 266.525C475.64 266.779 476.167 267.222 476.723 267.852C477.28 268.483 477.789 269.175 478.25 269.93C478.712 270.684 479.095 271.469 479.399 272.285C479.704 273.1 479.853 273.82 479.847 274.445C479.844 274.789 479.825 275.148 479.79 275.523C479.756 275.866 479.737 276.21 479.733 276.554C479.727 277.179 479.831 277.82 480.043 278.479C480.256 279.106 480.436 279.811 480.585 280.593C480.702 281.469 480.772 282.298 480.796 283.08C480.851 283.862 480.922 284.597 481.009 285.285C481.096 285.942 481.215 286.568 481.366 287.164C481.547 287.759 481.855 288.325 482.287 288.86C482.904 289.679 483.773 290.343 484.893 290.854C486.013 291.334 487.12 291.579 488.214 291.589C488.901 291.596 489.449 291.492 489.858 291.277C490.297 291.062 490.675 290.8 490.99 290.491C491.306 290.181 491.606 289.872 491.89 289.562C492.206 289.221 492.568 288.928 492.977 288.682C493.605 288.313 494.202 288.037 494.766 287.855C495.33 287.642 495.833 287.381 496.273 287.073C496.714 286.733 497.062 286.283 497.318 285.723C497.573 285.163 497.706 284.336 497.717 283.243C497.725 282.368 497.562 281.444 497.228 280.472C496.925 279.469 496.731 278.467 496.647 277.467C496.562 276.591 496.506 275.856 496.481 275.262C496.456 274.636 496.399 274.058 496.31 273.526C496.253 272.963 496.133 272.414 495.951 271.881C495.769 271.317 495.447 270.673 494.985 269.95C494.861 269.824 494.583 269.509 494.15 269.005C493.718 268.469 493.208 267.917 492.619 267.349C492.062 266.781 491.458 266.275 490.806 265.832C490.154 265.357 489.547 265.116 488.985 265.111C488.735 265.109 488.484 265.122 488.234 265.151C488.015 265.18 487.781 265.193 487.531 265.191C486.531 265.181 485.502 264.952 484.443 264.505C483.416 264.057 482.359 263.516 481.271 262.88C480.184 262.214 479.081 261.515 477.963 260.786C476.845 260.056 475.726 259.405 474.607 258.832C473.674 258.354 472.616 257.906 471.432 257.488C470.28 257.071 469.191 256.607 468.164 256.098C467.138 255.588 466.284 255.001 465.603 254.338C464.922 253.644 464.586 252.797 464.596 251.797C464.598 251.61 464.633 251.235 464.701 250.673C464.8 250.112 464.915 249.472 465.047 248.755C465.179 248.006 465.343 247.211 465.539 246.369C465.735 245.496 465.962 244.67 466.219 243.891C466.477 243.081 466.734 242.349 466.99 241.695C467.278 241.041 467.58 240.529 467.896 240.157C468.338 239.63 468.89 239.119 469.551 238.626C470.243 238.132 470.919 237.701 471.579 237.333C472.239 236.933 472.821 236.626 473.323 236.412C473.856 236.167 474.201 236.045 474.357 236.047C474.639 236.05 474.904 236.083 475.153 236.148C475.434 236.182 475.715 236.201 475.997 236.203C476.59 236.209 477.091 236.151 477.498 236.03C477.937 235.878 478.314 235.694 478.629 235.479C478.975 235.263 479.305 235.063 479.619 234.879C479.933 234.663 480.295 234.479 480.702 234.327C481.236 234.113 481.877 234.01 482.627 234.017C483.409 233.993 484.175 233.907 484.927 233.758C485.804 233.579 486.899 233.371 488.214 233.133C489.561 232.865 490.907 232.628 492.253 232.422C493.63 232.185 494.913 231.995 496.102 231.85C497.291 231.705 498.182 231.651 498.776 231.688C499.088 231.691 499.415 231.772 499.758 231.932C500.131 232.092 500.409 232.438 500.591 232.971C500.995 233.256 501.462 233.464 501.992 233.594C502.522 233.724 502.957 233.931 503.298 234.216C503.763 234.627 504.242 235.163 504.736 235.824C505.261 236.485 505.755 237.052 506.22 237.526C506.684 237.999 507.086 238.425 507.426 238.803C507.798 239.15 508.091 239.497 508.307 239.843C508.554 240.158 508.722 240.503 508.812 240.879C508.934 241.224 508.993 241.646 508.988 242.146C508.978 243.146 508.859 244.114 508.632 245.049C508.404 245.984 508.021 246.825 507.482 247.569C506.976 248.283 506.282 248.87 505.403 249.331C504.555 249.76 503.475 249.968 502.162 249.956C501.381 249.948 500.538 249.862 499.633 249.697C498.729 249.501 497.919 249.259 497.203 248.971C496.829 248.842 496.456 248.635 496.084 248.35C495.711 248.066 495.339 247.781 494.967 247.496C494.595 247.18 494.207 246.879 493.804 246.594C493.4 246.309 492.965 246.086 492.498 245.925C492.03 245.764 491.422 245.618 490.674 245.486C489.925 245.322 489.145 245.19 488.334 245.088C487.553 244.987 486.788 244.901 486.039 244.832C485.29 244.762 484.665 244.725 484.165 244.72C483.509 244.714 482.868 244.754 482.242 244.842C481.616 244.898 481.052 245.049 480.55 245.294C480.079 245.509 479.685 245.817 479.369 246.221C479.053 246.624 478.891 247.154 478.885 247.81C478.881 248.185 478.941 248.513 479.063 248.796C479.217 249.079 479.417 249.346 479.665 249.599C479.944 249.82 480.285 250.058 480.689 250.312C481.093 250.566 481.559 250.867 482.087 251.216C482.552 251.533 483.002 251.881 483.436 252.26C483.901 252.64 484.351 253.003 484.785 253.351C485.25 253.699 485.716 254.032 486.182 254.349C486.647 254.666 487.129 254.921 487.628 255.113C488.22 255.306 488.828 255.437 489.452 255.506C490.108 255.543 490.685 255.611 491.185 255.71C493.024 256.165 494.736 256.822 496.322 257.681C497.939 258.509 499.43 259.477 500.794 260.584C502.159 261.691 503.382 262.89 504.463 264.182C505.576 265.443 506.548 266.733 507.379 268.054C507.779 268.714 508.101 269.311 508.346 269.844C508.591 270.347 508.774 270.864 508.894 271.397C509.014 271.898 509.087 272.445 509.112 273.039C509.138 273.633 509.147 274.352 509.138 275.196C509.129 276.165 509.214 277.103 509.393 278.011C509.571 278.919 509.657 279.732 509.65 280.451Z" fill="black"/>
<path d="M704.096 274.734C703.948 275.216 703.774 275.72 703.572 276.246C703.384 276.743 703.181 277.234 702.963 277.719C702.273 279.259 701.562 280.464 700.83 281.335C700.11 282.176 699.323 282.748 698.469 283.05C697.643 283.365 696.722 283.432 695.707 283.251C694.705 283.042 693.577 282.656 692.322 282.094C691.752 281.838 691.258 281.566 690.84 281.276C690.435 280.957 689.995 280.64 689.52 280.324C689.086 279.993 688.574 279.644 687.985 279.277C687.409 278.882 686.679 278.487 685.795 278.09C684.882 277.681 683.943 277.295 682.976 276.93C682.022 276.537 681.189 276.18 680.476 275.861C679.877 275.593 679.286 275.345 678.703 275.118C678.133 274.862 677.594 274.689 677.086 274.599C676.579 274.508 676.125 274.528 675.725 274.657C675.338 274.757 675.048 275.021 674.856 275.449C674.115 277.103 673.525 278.687 673.086 280.203C672.675 281.731 672.201 283.094 671.664 284.292C671.051 285.66 670.407 286.982 669.734 288.255C669.089 289.541 668.441 290.912 667.789 292.366C667.137 293.82 666.566 295.362 666.076 296.992C665.627 298.605 665.134 300.011 664.597 301.209C664.341 301.779 664.089 302.265 663.841 302.668C663.592 303.07 663.354 303.409 663.128 303.684C662.931 303.972 662.752 304.218 662.593 304.42C662.434 304.623 662.309 304.824 662.22 305.023C662.028 305.451 661.903 305.96 661.844 306.55C661.814 307.153 661.76 307.54 661.683 307.711C661.064 308.94 660.436 309.96 659.799 310.77C659.175 311.552 658.449 312.1 657.623 312.415C656.826 312.743 655.871 312.811 654.758 312.621C653.66 312.471 652.313 312.039 650.716 311.323C650.288 311.131 649.823 310.871 649.319 310.543C648.816 310.215 648.331 309.844 647.866 309.43C647.388 309.044 646.993 308.627 646.68 308.179C646.355 307.759 646.177 307.354 646.146 306.964C646.103 306.602 646.169 306.186 646.345 305.717C646.521 305.248 646.716 304.736 646.93 304.182C647.145 303.627 647.351 303.052 647.55 302.456C647.789 301.844 647.945 301.229 648.017 300.611C648.095 299.824 648.025 299.142 647.804 298.564C647.625 297.97 647.427 297.419 647.21 296.91C647.005 296.373 646.843 295.856 646.724 295.357C646.634 294.871 646.716 294.343 646.972 293.773C647.432 292.746 648.11 291.578 649.005 290.267C649.929 288.969 650.887 287.634 651.878 286.263C652.882 284.864 653.825 283.523 654.708 282.241C655.632 280.943 656.318 279.795 656.765 278.796L657.704 276.7C657.947 276.159 658.239 275.622 658.58 275.09C658.934 274.529 659.296 273.989 659.665 273.47C660.035 272.951 660.384 272.439 660.712 271.936C661.041 271.432 661.307 270.952 661.512 270.496C661.959 269.498 661.968 268.714 661.538 268.145C661.108 267.576 660.408 267.074 659.439 266.639L657.599 265.815C657.029 265.56 656.492 265.268 655.989 264.939C655.485 264.611 655.09 264.194 654.803 263.689C654.74 263.523 654.679 263.085 654.621 262.375C654.604 261.648 654.586 260.886 654.566 260.09C654.559 259.265 654.555 258.51 654.554 257.824C654.594 257.123 654.64 256.716 654.691 256.601C654.908 256.117 655.235 255.732 655.67 255.448C656.134 255.176 656.58 254.794 657.006 254.3C657.538 253.648 657.995 253.048 658.378 252.501C658.76 251.953 659.117 251.462 659.448 251.028C659.78 250.595 660.122 250.252 660.475 249.999C660.869 249.73 661.331 249.578 661.861 249.541C662.404 249.476 663.057 249.547 663.822 249.752C664.614 249.97 665.581 250.335 666.721 250.846C667.064 250.999 667.366 251.203 667.629 251.458C667.92 251.725 668.19 252.001 668.44 252.284C668.703 252.539 668.965 252.793 669.228 253.048C669.49 253.302 669.793 253.506 670.135 253.66C670.762 253.941 671.276 254.017 671.676 253.888C672.076 253.759 672.431 253.541 672.74 253.235C673.09 252.912 673.432 252.569 673.766 252.205C674.142 251.825 674.584 251.527 675.092 251.309C675.642 251.076 676.316 250.985 677.116 251.035C677.915 251.085 678.928 251.385 680.154 251.934C681 252.416 681.512 252.954 681.691 253.548C681.883 254.113 681.964 254.697 681.933 255.3C681.903 255.903 681.887 256.512 681.885 257.127C681.883 257.743 682.118 258.327 682.589 258.881C682.649 258.976 682.894 259.155 683.325 259.416C683.784 259.69 684.286 259.984 684.831 260.297C685.376 260.609 685.892 260.909 686.38 261.196C686.909 261.467 687.287 261.654 687.515 261.756C688.086 262.012 688.675 262.225 689.284 262.395C689.893 262.565 690.482 262.778 691.053 263.033C691.594 263.276 692.055 263.585 692.435 263.961C692.856 264.321 693.264 264.709 693.659 265.126C694.083 265.555 694.556 265.99 695.078 266.43C695.613 266.84 696.294 267.231 697.121 267.602C698.034 268.011 698.894 268.345 699.703 268.604C700.539 268.877 701.286 269.16 701.942 269.454C702.455 269.684 702.886 269.945 703.234 270.238C703.623 270.515 703.917 270.853 704.116 271.25C704.315 271.647 704.405 272.133 704.388 272.707C704.411 273.266 704.314 273.941 704.096 274.734Z" fill="black"/>
<path d="M572.452 247.127C572.267 248.289 571.689 249.323 570.715 250.227C569.772 251.1 568.671 251.914 567.412 252.671C566.152 253.396 564.86 254.092 563.535 254.756C562.21 255.39 561.119 256.032 560.263 256.683C559.988 256.91 559.622 257.187 559.162 257.513C558.733 257.808 558.321 258.133 557.925 258.488C557.529 258.813 557.179 259.152 556.877 259.504C556.606 259.856 556.491 260.173 556.53 260.453C556.544 260.921 556.699 261.401 556.995 261.893C557.292 262.384 557.634 262.874 558.024 263.363C558.413 263.82 558.785 264.246 559.141 264.642C559.528 265.037 559.804 265.373 559.968 265.649C560.101 265.895 560.203 266.189 560.276 266.531C560.379 266.841 560.468 267.182 560.541 267.555C560.614 267.897 560.703 268.253 560.808 268.625C560.913 268.997 561.049 269.369 561.216 269.739C561.549 270.417 561.961 271.108 562.451 271.812C562.941 272.517 563.446 273.22 563.968 273.924C564.488 274.596 564.993 275.269 565.482 275.942C566.001 276.583 566.458 277.21 566.851 277.824C567.246 278.469 567.642 279.191 568.041 279.992C568.472 280.792 568.916 281.545 569.375 282.25C569.67 282.711 569.98 283.123 570.303 283.489C570.657 283.822 570.964 284.141 571.223 284.446C571.482 284.751 571.695 285.073 571.861 285.412C572.058 285.719 572.164 286.106 572.178 286.575C572.207 287.574 571.861 288.538 571.139 289.467C570.416 290.395 569.488 291.251 568.355 292.035C567.221 292.82 565.961 293.545 564.574 294.212C563.186 294.847 561.859 295.403 560.591 295.878C559.818 296.152 559.138 296.422 558.552 296.69C557.997 296.956 557.595 297.094 557.345 297.101C556.031 297.078 554.972 296.672 554.166 295.883C553.36 295.063 552.675 294.083 552.109 292.943C551.542 291.772 551.053 290.552 550.639 289.282C550.257 287.981 549.816 286.837 549.318 285.852C549.052 285.328 548.66 284.761 548.141 284.152C547.623 283.542 547.182 282.914 546.819 282.268C546.524 281.808 546.208 281.177 545.871 280.374C545.533 279.54 545.179 278.66 544.807 277.733C544.467 276.805 544.095 275.863 543.691 274.906C543.318 273.947 542.934 273.099 542.536 272.361C542.169 271.59 541.807 270.96 541.448 270.471C541.089 269.981 540.738 269.741 540.395 269.752C540.207 269.757 539.975 269.842 539.699 270.007C539.454 270.171 539.21 270.366 538.966 270.592C538.723 270.818 538.495 271.028 538.282 271.222C538.1 271.415 537.962 271.528 537.87 271.562C537.503 271.855 537.165 272.052 536.856 272.155C536.576 272.226 536.329 272.328 536.114 272.459C535.931 272.59 535.781 272.797 535.664 273.082C535.548 273.367 535.499 273.822 535.517 274.447C535.539 275.165 535.719 275.972 536.059 276.869C536.429 277.764 536.723 278.694 536.939 279.656C537.159 280.713 537.332 281.802 537.459 282.924C537.617 284.013 537.786 284.962 537.966 285.769C538.12 286.734 538.307 287.744 538.526 288.8C538.744 289.826 538.947 290.851 539.134 291.877C539.351 292.871 539.537 293.851 539.691 294.815C539.844 295.749 539.931 296.59 539.954 297.34C539.958 297.496 539.936 297.778 539.885 298.186C539.834 298.563 539.738 299.003 539.596 299.508C539.486 299.98 539.313 300.47 539.078 300.977C538.842 301.453 538.541 301.837 538.174 302.129C537.96 302.292 537.482 302.51 536.74 302.782C536.029 303.053 535.224 303.312 534.325 303.558C533.425 303.803 532.541 304.017 531.671 304.2C530.832 304.381 530.178 304.479 529.71 304.493C529.272 304.506 528.678 304.477 527.925 304.406C527.205 304.365 526.452 304.293 525.668 304.192C524.883 304.09 524.144 303.956 523.452 303.789C522.759 303.622 522.237 303.419 521.886 303.179C521.312 302.821 520.826 302.242 520.427 301.441C520.028 300.64 519.69 299.79 519.413 298.892C519.136 297.994 518.923 297.156 518.775 296.379C518.658 295.601 518.595 295.055 518.585 294.743C518.546 293.431 518.584 292.086 518.699 290.707C518.844 289.295 518.99 287.9 519.137 286.52C519.282 285.108 519.413 283.729 519.529 282.381C519.675 281.001 519.728 279.655 519.689 278.343C519.67 277.687 519.616 276.939 519.528 276.097C519.472 275.255 519.385 274.444 519.268 273.666C519.194 273.293 519.073 272.906 518.905 272.505C518.736 272.072 518.646 271.668 518.634 271.294C518.612 270.544 518.664 269.683 518.792 268.71C518.919 267.737 519.045 266.732 519.17 265.697C519.326 264.629 519.466 263.562 519.59 262.495C519.714 261.397 519.761 260.349 519.731 259.349C519.684 257.787 519.532 256.369 519.275 255.095C519.049 253.789 518.921 252.652 518.892 251.683C518.881 251.308 518.96 250.822 519.13 250.222C519.331 249.622 519.426 249.151 519.416 248.807C519.406 248.495 519.382 248.214 519.344 247.965C519.304 247.685 519.28 247.42 519.273 247.17C519.249 246.389 519.404 245.79 519.735 245.374C520.066 244.958 520.414 244.572 520.779 244.217C521.175 243.862 521.537 243.444 521.867 242.965C522.197 242.487 522.348 241.81 522.322 240.935L522.287 239.764C522.248 238.452 522.421 237.431 522.805 236.7C523.189 235.938 523.75 235.375 524.49 235.009C525.26 234.642 526.207 234.41 527.33 234.314C528.452 234.218 529.732 234.148 531.169 234.105C531.731 234.089 532.187 234.184 532.537 234.393C532.888 234.601 533.178 234.889 533.407 235.258C533.636 235.595 533.789 235.997 533.866 236.463C533.973 236.929 534.034 237.396 534.048 237.865C534.078 238.864 534.001 239.961 533.818 241.154C533.635 242.348 533.53 243.539 533.503 244.728C533.45 246.074 533.379 247.358 533.29 248.58C533.201 249.802 533.113 251.024 533.024 252.245C532.966 253.435 532.909 254.641 532.851 255.862C532.824 257.05 532.83 258.301 532.87 259.613C532.887 260.206 532.917 260.659 532.957 260.97C532.998 261.282 533.112 261.434 533.299 261.429C533.487 261.423 533.764 261.306 534.133 261.076C534.532 260.845 534.931 260.583 535.328 260.29C535.756 259.964 536.138 259.671 536.475 259.411C536.81 259.12 537.038 258.925 537.161 258.828C538.811 257.559 540.34 256.435 541.749 255.455C543.157 254.444 544.536 253.496 545.885 252.611C547.265 251.726 548.662 250.871 550.076 250.047C551.488 249.192 553.024 248.286 554.684 247.33C555.483 246.869 556.28 246.345 557.076 245.758C557.87 245.14 558.53 244.73 559.055 244.526C559.427 244.421 559.895 244.361 560.457 244.344C561.05 244.326 561.471 244.267 561.718 244.165C562.057 244.03 562.503 243.767 563.054 243.375C563.635 242.951 564.248 242.527 564.892 242.101C565.566 241.643 566.257 241.232 566.965 240.866C567.705 240.5 568.387 240.308 569.011 240.289C569.917 240.262 570.713 240.739 571.399 241.719C572.085 242.699 572.451 243.985 572.499 245.578C572.507 245.828 572.514 246.094 572.523 246.375C572.53 246.625 572.507 246.875 572.452 247.127Z" fill="black"/>
<path d="M747.14 333.091C746.912 333.281 746.648 333.41 746.346 333.481C746.045 333.551 745.785 333.702 745.567 333.935C745.247 334.214 744.958 334.531 744.7 334.886C744.459 335.214 744.191 335.526 743.897 335.822C743.63 336.134 743.331 336.408 743 336.644C742.669 336.88 742.275 337.04 741.818 337.123C741.318 337.217 740.719 337.176 740.019 336.999C739.32 336.821 738.576 336.598 737.787 336.328C737.024 336.075 736.249 335.813 735.46 335.544C734.697 335.29 733.998 335.113 733.362 335.012C732.848 334.95 732.298 334.976 731.712 335.09C731.143 335.178 730.543 335.284 729.914 335.408C729.302 335.505 728.671 335.573 728.022 335.611C727.399 335.665 726.768 335.586 726.128 335.372C725.647 335.257 725.085 335.037 724.442 334.71C723.782 334.41 723.162 334.135 722.582 333.885C721.985 333.661 721.282 333.371 720.473 333.015C719.674 332.702 718.817 332.335 717.901 331.913C716.996 331.534 716.068 331.104 715.116 330.623C714.191 330.158 713.317 329.67 712.494 329.158C711.645 328.631 711.009 328.143 710.587 327.697C710.176 327.294 709.855 326.892 709.626 326.492C709.396 326.092 709.196 325.673 709.026 325.236C708.84 324.826 708.565 324.38 708.203 323.897C707.609 323.196 706.951 322.567 706.231 322.008C705.511 321.45 704.816 320.852 704.145 320.215C703.474 319.577 702.861 318.846 702.306 318.023C701.751 317.199 701.341 316.172 701.077 314.94C701.047 314.811 701.049 314.629 701.085 314.394C701.138 314.132 701.198 313.857 701.267 313.568C701.336 313.28 701.397 313.005 701.449 312.743C701.502 312.481 701.529 312.259 701.532 312.077C701.498 311.541 701.382 311.046 701.186 310.592C701.032 310.129 700.884 309.687 700.74 309.267C700.64 308.836 700.596 308.404 700.608 307.97C700.62 307.536 700.775 307.08 701.072 306.603C701.286 306.258 701.629 305.974 702.098 305.75C702.585 305.501 703.099 305.324 703.642 305.22C704.185 305.116 704.722 305.082 705.252 305.117C705.782 305.152 706.206 305.269 706.525 305.467L707.122 305.838C707.467 306.052 707.803 306.133 708.131 306.079C708.486 306.042 708.812 305.932 709.109 305.749C709.407 305.566 709.681 305.332 709.932 305.046C710.21 304.777 710.431 304.51 710.596 304.245C710.943 303.687 711.286 303.017 711.625 302.235C711.991 301.469 712.463 300.621 713.04 299.692C713.321 299.241 713.614 298.798 713.921 298.364C714.271 297.919 714.579 297.484 714.843 297.06C715.255 296.396 715.509 295.781 715.603 295.215C715.725 294.664 715.915 294.121 716.176 293.583C716.802 292.28 717.529 290.874 718.357 289.365C719.211 287.872 720.125 286.343 721.099 284.777C721.544 284.061 722.033 283.334 722.564 282.597C723.096 281.861 723.619 281.137 724.134 280.427C724.649 279.717 725.14 279.047 725.605 278.416C726.087 277.759 726.485 277.179 726.799 276.674C726.997 276.356 726.941 275.972 726.632 275.522C726.349 275.089 726.06 274.578 725.764 273.989C725.468 273.4 725.264 272.721 725.153 271.953C725.085 271.175 725.364 270.281 725.991 269.273C726.651 268.211 727.633 267.46 728.937 267.02C730.268 266.596 731.683 266.391 733.184 266.404C734.701 266.39 736.186 266.577 737.637 266.965C739.106 267.326 740.304 267.795 741.233 268.372C742.826 269.362 744.402 270.526 745.962 271.864C747.522 273.202 749.178 274.415 750.929 275.504C751.274 275.719 751.697 275.926 752.198 276.127C752.715 276.302 753.285 276.509 753.908 276.749C754.558 277.006 755.253 277.309 755.992 277.659C756.749 277.981 757.551 278.407 758.4 278.935C758.931 279.265 759.315 279.595 759.551 279.926C759.786 280.257 759.971 280.611 760.105 280.988C760.281 281.355 760.419 281.754 760.52 282.184C760.663 282.605 760.886 283.075 761.189 283.594C761.382 283.935 761.666 284.277 762.041 284.62C762.416 284.964 762.705 285.328 762.908 285.711C763.181 286.102 763.397 286.494 763.557 286.888C763.733 287.255 763.916 287.553 764.106 287.781C764.81 288.66 765.487 289.376 766.138 289.927C766.815 290.495 767.331 291.056 767.687 291.608C768.059 292.134 768.222 292.731 768.173 293.401C768.142 294.043 767.804 294.882 767.161 295.917C766.253 297.377 765.388 298.384 764.564 298.939C763.767 299.511 762.922 299.776 762.027 299.735C761.149 299.668 760.186 299.382 759.138 298.878C758.09 298.373 756.875 297.783 755.492 297.108C754.242 296.514 753.021 295.903 751.831 295.273C750.667 294.659 749.434 293.948 748.134 293.14C746.568 292.167 744.887 290.993 743.092 289.619C741.313 288.219 739.468 286.925 737.558 285.737C737.053 285.423 736.634 285.181 736.299 285.009C735.964 284.838 735.654 284.774 735.369 284.818C735.111 284.878 734.835 285.056 734.541 285.351C734.273 285.663 733.941 286.138 733.545 286.775C733.265 287.226 732.989 287.699 732.719 288.193C732.475 288.704 732.248 289.188 732.037 289.645C731.826 290.103 731.656 290.494 731.528 290.819C731.426 291.161 731.377 291.388 731.38 291.5C731.454 291.914 731.787 292.415 732.378 293.003C732.985 293.565 733.675 294.142 734.449 294.733C735.238 295.297 736.023 295.84 736.803 296.362C737.625 296.873 738.289 297.286 738.793 297.599C739.404 297.979 739.989 298.251 740.549 298.415C741.136 298.596 741.691 298.739 742.215 298.843C742.781 298.938 743.292 299.034 743.746 299.133C744.226 299.248 744.666 299.429 745.064 299.676C745.488 299.94 745.782 300.178 745.945 300.39C746.134 300.618 746.254 300.839 746.304 301.055C746.371 301.243 746.39 301.42 746.36 301.586C746.374 301.742 746.422 301.901 746.505 302.063C746.692 302.473 746.828 302.816 746.915 303.09C747.002 303.365 747.041 303.628 747.031 303.88C747.022 304.132 746.94 304.412 746.785 304.72C746.673 305.019 746.477 305.394 746.196 305.845C745.256 307.357 744.424 308.459 743.7 309.15C742.976 309.841 742.15 310.192 741.223 310.204C740.339 310.206 739.258 309.902 737.981 309.293C736.747 308.673 735.145 307.787 733.175 306.636C732.442 306.217 731.833 305.894 731.349 305.666C730.882 305.412 730.487 305.277 730.166 305.262C729.861 305.219 729.589 305.271 729.351 305.418C729.14 305.58 728.918 305.848 728.687 306.219C727.912 307.466 727.247 308.507 726.692 309.339C726.181 310.162 725.866 310.905 725.749 311.568C725.647 312.204 725.801 312.815 726.21 313.4C726.635 313.959 727.419 314.593 728.56 315.302C729.436 315.847 730.363 316.368 731.341 316.866C732.319 317.364 733.306 317.848 734.301 318.32C735.312 318.764 736.305 319.179 737.28 319.565C738.281 319.966 739.23 320.335 740.125 320.671C740.871 320.951 741.588 321.158 742.278 321.292C742.967 321.426 743.622 321.557 744.241 321.685C744.904 321.802 745.542 321.96 746.155 322.157C746.785 322.328 747.392 322.595 747.976 322.958C749.409 323.849 750.241 324.937 750.473 326.221C750.731 327.523 750.373 328.956 749.4 330.522C749.12 330.973 748.783 331.426 748.39 331.881C747.996 332.336 747.58 332.739 747.14 333.091Z" fill="black"/>
<path d="M630.785 287.525C630.767 287.812 630.725 288.126 630.659 288.465C630.603 288.773 630.527 289.093 630.431 289.423C630.206 290.204 629.897 290.993 629.504 291.79C629.119 292.557 628.69 293.312 628.216 294.053C627.772 294.803 627.306 295.514 626.819 296.186C626.371 296.838 625.95 297.448 625.558 298.018C624.782 299.127 624.198 299.967 623.806 300.537C623.414 301.106 623.069 301.511 622.772 301.751C622.484 301.96 622.17 302.032 621.831 301.967C621.522 301.91 621.053 301.791 620.422 301.609C619.972 301.479 619.417 301.204 618.757 300.786C618.106 300.338 617.47 299.78 616.85 299.113C616.238 298.416 615.701 297.627 615.24 296.745C614.809 295.873 614.608 294.936 614.637 293.936C614.689 293.756 614.836 293.473 615.077 293.087C615.319 292.702 615.513 292.254 615.66 291.743C615.726 291.405 615.805 290.907 615.897 290.25C616.019 289.603 616.128 288.886 616.225 288.101C616.33 287.285 616.42 286.466 616.496 285.642C616.61 284.797 616.672 284.018 616.683 283.305C616.694 282.593 616.654 281.996 616.566 281.515C616.507 281.042 616.373 280.776 616.162 280.715C615.382 280.49 614.777 280.445 614.347 280.581C613.956 280.696 613.602 280.854 613.283 281.055C612.974 281.225 612.634 281.388 612.265 281.541C611.934 281.673 611.453 281.648 610.822 281.466C610.222 281.293 609.579 281.042 608.893 280.714C608.216 280.355 607.449 279.971 606.591 279.561C605.773 279.129 604.855 278.701 603.839 278.278C602.832 277.824 601.698 277.415 600.437 277.051C599.776 276.86 599.167 276.717 598.609 276.621C598.06 276.495 597.674 276.481 597.45 276.579C597.042 276.754 596.65 277.21 596.275 277.947C595.899 278.684 595.527 279.52 595.16 280.455C594.801 281.359 594.457 282.269 594.128 283.182C593.808 284.065 593.48 284.751 593.143 285.239C593.057 285.312 592.885 285.458 592.627 285.676C592.378 285.864 592.081 286.103 591.736 286.394C591.401 286.655 591.052 286.961 590.691 287.312C590.338 287.633 590.034 287.952 589.78 288.269C589.186 288.975 588.602 289.815 588.028 290.788C587.493 291.739 586.915 292.613 586.295 293.41C585.696 294.245 585.05 294.904 584.357 295.387C583.665 295.87 582.883 295.986 582.013 295.735C581.442 295.57 580.941 295.279 580.508 294.861C580.106 294.452 579.762 294.011 579.476 293.538C579.211 293.104 579.006 292.687 578.861 292.287C578.708 291.918 578.633 291.668 578.638 291.54C578.46 290.805 578.247 290.191 577.999 289.696C577.791 289.181 577.584 288.714 577.379 288.297C577.174 287.88 577.034 287.466 576.957 287.053C576.89 286.611 576.939 286.105 577.104 285.534C577.164 285.324 577.262 285.043 577.396 284.692C577.5 284.331 577.638 283.965 577.811 283.592C577.954 283.21 578.107 282.848 578.271 282.505C578.435 282.162 578.582 281.879 578.712 281.656C578.815 281.524 578.963 281.404 579.157 281.297C579.389 281.169 579.606 281.036 579.808 280.9C580.041 280.772 580.238 280.65 580.402 280.534C580.604 280.398 580.731 280.239 580.783 280.059C580.852 279.819 580.842 279.572 580.753 279.318C580.694 279.074 580.699 278.831 580.768 278.591C580.785 278.531 580.813 278.49 580.852 278.469C580.891 278.447 580.919 278.407 580.936 278.347C581.497 277.533 582.108 276.766 582.771 276.047C583.465 275.336 584.132 274.602 584.774 273.844C585.454 273.065 586.079 272.253 586.648 271.409C587.256 270.544 587.755 269.55 588.144 268.426C588.3 267.886 588.469 267.3 588.651 266.67C588.864 266.048 589.076 265.426 589.288 264.804C589.539 264.161 589.796 263.552 590.059 262.978C590.362 262.382 590.687 261.874 591.036 261.455C591.092 261.373 591.271 261.262 591.571 261.122C591.902 260.989 592.266 260.802 592.661 260.558C593.066 260.285 593.442 259.938 593.791 259.518C594.179 259.077 594.463 258.542 594.646 257.911C594.741 257.581 594.811 257.227 594.855 256.849C594.899 256.472 594.973 256.103 595.077 255.742C595.198 255.322 595.358 254.994 595.556 254.759C595.793 254.502 596.036 254.279 596.286 254.091C596.574 253.882 596.847 253.668 597.105 253.45C597.393 253.24 597.65 252.973 597.874 252.647C598.296 252.086 598.622 251.464 598.851 250.783C599.09 250.071 599.308 249.37 599.508 248.679C599.716 247.958 599.935 247.257 600.164 246.575C600.424 245.902 600.765 245.285 601.187 244.724C601.325 244.471 601.525 244.285 601.787 244.166C602.058 244.016 602.325 243.882 602.587 243.762C602.888 243.621 603.163 243.457 603.413 243.269C603.662 243.081 603.835 242.822 603.93 242.491C603.999 242.251 604.039 242.002 604.048 241.745C604.096 241.466 604.163 241.176 604.25 240.876C604.45 240.186 604.803 239.523 605.312 238.89C605.85 238.264 606.414 237.663 607.004 237.085C607.602 236.477 608.147 235.887 608.638 235.313C609.168 234.718 609.515 234.135 609.68 233.564L609.94 232.664C610.105 232.093 610.499 231.573 611.123 231.103C611.777 230.641 612.578 230.287 613.528 230.041C614.486 229.764 615.533 229.628 616.671 229.631C617.847 229.613 619.021 229.773 620.192 230.111C620.852 230.302 621.412 230.561 621.87 230.889C622.367 231.195 622.855 231.531 623.335 231.898C623.815 232.264 624.339 232.643 624.909 233.036C625.488 233.398 626.193 233.715 627.025 233.988C627.505 234.127 628.014 234.225 628.55 234.282C629.125 234.318 629.7 234.354 630.275 234.39C630.859 234.396 631.434 234.432 632.001 234.498C632.576 234.534 633.118 234.626 633.629 234.773C633.899 234.852 634.218 235.041 634.586 235.343C634.993 235.623 635.383 235.963 635.755 236.364C636.158 236.773 636.517 237.218 636.833 237.7C637.18 238.19 637.446 238.674 637.634 239.151C637.975 239.997 638.084 240.972 637.96 242.075C637.867 243.186 637.692 244.355 637.435 245.582C637.208 246.818 636.996 248.058 636.8 249.302C636.603 250.546 636.576 251.71 636.719 252.792C636.756 253.225 636.832 253.638 636.947 254.029C637.07 254.39 637.17 254.776 637.246 255.189C637.352 255.61 637.396 256.078 637.377 256.593C637.397 257.086 637.308 257.678 637.108 258.369C636.865 259.21 636.573 260.052 636.232 260.897C635.899 261.711 635.62 262.509 635.394 263.29C635.212 263.92 635.135 264.467 635.164 264.931C635.223 265.403 635.294 265.831 635.379 266.213C635.473 266.565 635.551 266.913 635.614 267.257C635.708 267.609 635.694 267.995 635.572 268.415C635.408 268.986 635.131 269.605 634.743 270.274C634.355 270.942 634.061 271.622 633.861 272.312C633.67 272.973 633.602 273.604 633.656 274.205C633.71 274.806 633.629 275.368 633.413 275.891C633.218 276.453 632.948 276.993 632.604 277.511C632.259 278.03 631.903 278.529 631.537 279.008C631.171 279.488 630.819 279.972 630.483 280.461C630.147 280.949 629.905 281.448 629.758 281.959C629.636 282.379 629.624 282.815 629.722 283.266C629.819 283.717 629.946 284.176 630.104 284.645C630.261 285.113 630.415 285.596 630.563 286.095C630.721 286.563 630.795 287.04 630.785 287.525ZM616.738 270.782C616.997 270.564 617.186 270.244 617.308 269.824C617.429 269.404 617.493 268.902 617.499 268.318C617.505 267.734 617.487 267.176 617.446 266.644C617.443 266.09 617.423 265.596 617.386 265.163C617.348 264.729 617.351 264.437 617.395 264.287C617.481 263.987 617.613 263.7 617.79 263.425C617.967 263.151 618.103 262.849 618.198 262.519C618.424 261.738 618.488 260.895 618.392 259.989C618.296 259.083 618.133 258.239 617.904 257.457C617.713 256.654 617.507 255.96 617.285 255.375C617.072 254.761 616.947 254.351 616.909 254.144C616.838 253.603 616.826 253.08 616.875 252.573C616.962 252.046 617.011 251.539 617.021 251.054C617.061 250.578 617.039 250.149 616.954 249.766C616.869 249.384 616.643 249.042 616.274 248.74C615.154 250.368 613.996 251.953 612.803 253.495C611.639 255.046 610.467 256.626 609.286 258.237C608.144 259.826 607.015 261.484 605.898 263.211C604.82 264.916 603.806 266.737 602.856 268.675C603.95 268.828 605.057 269.05 606.177 269.341C607.305 269.602 608.525 269.824 609.838 270.009C610.027 270.031 610.48 270.096 611.196 270.206C611.913 270.315 612.664 270.418 613.449 270.515C614.264 270.62 614.99 270.7 615.625 270.753C616.29 270.815 616.661 270.825 616.738 270.782Z" fill="black"/>
<path d="M788.647 198.419C788.117 199.187 787.557 199.854 786.968 200.423C786.379 200.991 785.815 201.768 785.277 202.754C784.597 203.996 783.949 205.284 783.333 206.616C782.716 207.948 782.103 209.171 781.494 210.285C780.862 211.442 780.218 212.314 779.563 212.902C778.95 213.513 778.299 213.992 777.609 214.338C776.985 214.665 776.33 214.947 775.644 215.184C774.958 215.421 774.247 215.756 773.51 216.188C772.816 216.643 772.071 217.293 771.275 218.138C770.522 219.007 769.736 220.191 768.917 221.69C767.254 224.732 765.618 227.928 764.01 231.278C762.425 234.585 760.637 238.06 758.647 241.702C757.991 242.901 757.306 244.002 756.592 245.003C755.921 246.027 755.207 247.028 754.45 248.005C753.717 248.94 752.929 249.873 752.086 250.803C751.31 251.714 750.477 252.678 749.588 253.694C748.562 254.859 747.639 255.885 746.82 256.773C746.024 257.618 745.139 258.219 744.165 258.577C743.233 258.958 742.116 259.015 740.815 258.749C739.533 258.549 737.928 257.922 736 256.868C734.586 256.096 733.734 255.212 733.442 254.218C733.127 253.267 733.068 252.205 733.264 251.032C733.526 249.84 733.889 248.564 734.354 247.205C734.843 245.802 735.193 244.296 735.405 242.687C735.483 241.729 735.447 240.93 735.296 240.29C735.168 239.608 735.061 238.938 734.976 238.279C734.957 237.601 735.039 236.839 735.223 235.994C735.431 235.106 735.909 233.976 736.658 232.605C737.267 231.491 737.966 230.315 738.754 229.076C739.585 227.861 740.428 226.624 741.282 225.367C742.16 224.066 743.017 222.753 743.852 221.429C744.753 220.085 745.579 218.728 746.328 217.357C746.984 216.157 747.472 215.061 747.792 214.067C748.113 213.074 748.388 212.111 748.619 211.18C748.892 210.273 749.178 209.343 749.475 208.393C749.795 207.399 750.295 206.281 750.974 205.039C751.63 203.839 752.221 202.91 752.748 202.252C753.317 201.617 753.84 201.068 754.316 200.605C754.834 200.165 755.298 199.723 755.708 199.279C756.16 198.859 756.586 198.285 756.984 197.556C757.405 196.785 757.568 195.928 757.471 194.985C757.441 194.022 757.323 193.067 757.117 192.12C756.954 191.196 756.822 190.317 756.722 189.483C756.645 188.607 756.801 187.913 757.191 187.403C757.379 187.06 757.665 186.688 758.051 186.287C758.438 185.886 758.835 185.464 759.245 185.02C759.721 184.556 760.163 184.103 760.573 183.659C761.006 183.172 761.363 182.672 761.644 182.158C762.604 180.401 763.294 178.58 763.712 176.694C764.174 174.832 764.814 173.151 765.634 171.651C765.751 171.437 765.868 171.223 765.985 171.008C766.102 170.794 766.262 170.603 766.465 170.436C766.832 169.969 767.473 169.457 768.389 168.9C769.329 168.301 770.31 167.78 771.331 167.336C772.376 166.85 773.35 166.492 774.254 166.263C775.182 165.991 775.796 165.937 776.096 166.101C776.353 166.242 776.577 166.392 776.768 166.552C777.001 166.735 777.225 166.885 777.44 167.003C778.296 167.471 779.436 167.982 780.858 168.537C782.323 169.115 783.783 169.802 785.24 170.598C786.311 171.184 787.359 171.812 788.383 172.483C789.431 173.112 790.37 173.736 791.199 174.356C792.071 175 792.792 175.616 793.36 176.205C793.972 176.818 794.376 177.4 794.575 177.954C794.656 178.11 794.669 178.646 794.614 179.561C794.602 180.501 794.564 181.537 794.5 182.671C794.46 183.762 794.368 184.797 794.223 185.775C794.144 186.733 794.077 187.365 794.023 187.669C793.753 188.467 793.298 189.554 792.658 190.929C792.06 192.328 791.364 193.755 790.567 195.212C790.286 195.726 789.96 196.271 789.59 196.848C789.242 197.381 788.928 197.905 788.647 198.419Z" fill="black"/>
<path d="M293.629 131.178C298.483 132.328 305.305 131.469 309.595 127.286L311.882 126.486C314.282 125.708 316.634 124.793 318.925 123.744C323.019 120.415 329.836 119.727 332.961 113.285L333.858 112.278C335.59 110.09 337.054 107.708 338.22 105.182C337.145 99.3219 341.133 93.245 340.908 88.2642L340.776 86.5454C340.393 84.44 339.862 82.3632 339.187 80.3298C338.486 73.45 336.043 66.5269 329.149 63.2673L327.436 62.0237C325.719 60.9516 323.998 60.051 322.442 59.4976C318.464 58.1977 315.165 57.6009 312.211 57.1843L303.685 56.4574L301.768 56.4097C297.751 56.6529 294.274 56.2232 290.814 55.1078C289.064 54.6735 287.331 54.1725 285.62 53.606C281.379 50.5101 276.363 48.6062 271.109 48.0982C265.546 47.445 259.62 47.2976 253.172 47.1371C251.423 47.0217 249.681 46.8065 247.957 46.4926C242.747 43.7614 237.244 41.6105 231.55 40.0798C226.008 38.5694 220.465 37.059 214.936 35.0342C214.413 35.0212 214.073 34.6696 213.554 34.4852C209.98 30.965 206.189 29.1551 202.389 27.6881C198.415 26.2167 194.423 25.4311 190.275 23.9554L188.031 23.0418L186.824 22.4971C183.338 22.4103 180.758 20.9737 178.183 19.3655C175.433 17.7531 172.861 15.9735 169.563 15.3767L168.356 14.832L167.833 14.819C165.245 13.7253 163.001 12.8116 160.939 11.5594L158.019 9.77115L156.298 8.87052L154.406 7.7941C147.644 6.25334 141.677 0.786535 133.482 0.754139L131.739 0.710768C129.208 0.850194 126.745 1.55923 124.538 2.78326C122.33 4.00729 120.439 5.71365 119.008 7.77092L117.223 9.44206C115.437 11.1132 113.656 12.6129 111.543 13.4181L109.928 15.265C107.403 18.6334 105.401 22.0147 104.078 26.0992L103.683 27.9765L103.292 29.6823C101.799 33.591 102.751 37.389 103.346 41.5211L103.473 43.4115C102.72 45.6154 102.541 47.9705 102.954 50.2608C103.667 56.6262 109.843 60.7258 113.188 66.4704L114.199 67.8681C115.385 69.27 116.749 70.5049 118.288 71.7441L119.138 72.623C120.838 74.3809 122.886 76.1475 124.939 77.7426L125.968 78.4544C132.569 79.4765 135.016 86.2282 141.439 87.4174L142.82 87.9664C144.89 88.8757 146.96 89.785 149.213 90.3558L151.461 91.0979L153.535 91.8358C153.216 92.7751 153.016 93.7497 152.94 94.7375L152.915 95.7662C150.207 99.4731 153.297 101.437 156.208 103.568L156.539 104.263L157.891 106.012C165.227 112.542 172.092 109.968 179.39 103.974C180.095 102.985 180.651 101.901 181.04 100.755L181.728 101.115L184.151 101.862C190.862 105.46 197.293 106.306 203.694 108.353L205.429 108.739L216.322 112.441L218.052 112.999C224.687 112.65 230.863 116.749 236.733 119.125L238.463 119.683L241.055 120.605L241.923 120.799L241.871 122.856L241.684 123.366L241.667 124.052C239.665 127.433 242.759 129.226 242.699 131.626L242.669 132.826C243.115 135.925 245.721 136.333 247.782 137.586L248.645 137.95C249.338 138.139 250.027 138.499 250.898 138.521L252.284 138.898C254.196 139.118 256.466 139.003 258.919 138.549C259.508 138.486 260.093 138.386 260.67 138.249C265.061 136.986 268.632 133.644 269.257 129.542L271.688 129.946C275.684 130.56 282.115 131.406 287.521 131.369L289.787 131.425L291.882 131.306L293.625 131.349L293.629 131.178ZM281.309 65.6794C286.146 67.5153 284.148 70.7252 282.371 72.0534C280.628 72.0101 277.321 71.7562 277.534 70.2175C277.577 68.503 276.255 65.5536 279.919 65.4732L281.139 65.5036L281.309 65.6794ZM274.311 87.6362C275.688 88.3567 276.355 89.5742 276.325 90.7743C276.295 91.9745 275.742 93.1616 274.85 93.9972C273.111 93.7824 269.983 93.3614 270.778 89.4354C271.148 88.5868 271.688 87.914 272.921 87.43L274.315 87.4647L274.311 87.6362ZM262.229 61.6018C264.452 63.3727 264.413 64.9157 264.205 66.283C260.647 69.111 259.117 67.5289 257.625 64.4037C257.659 63.0321 259.436 61.7038 261.009 61.5714L262.229 61.6018ZM255.796 81.8571C257.662 83.9622 257.449 85.5009 257.41 87.044C253.853 89.8719 252.327 88.1184 251.014 84.8261C251.052 83.283 252.829 81.9548 254.58 81.6553L255.8 81.6856L255.796 81.8571ZM189.755 37.8387C191.124 38.9021 192.684 39.284 192.645 40.8271C192.186 45.2762 187.536 42.9302 185.976 42.5483C187.749 41.3915 184.876 37.7172 188.54 37.6369C188.888 37.6455 189.411 37.6586 189.751 38.0101L189.755 37.8387ZM183.666 58.2741C184.334 59.4916 188.984 61.8376 183.866 64.2836C182.302 64.0731 180.737 63.8626 179.216 61.9376C177.907 58.4739 181.031 59.0663 182.272 58.2394L183.666 58.2741ZM172.664 30.8941C175.759 32.6867 175.508 35.7685 173.731 37.0968C171.988 37.0534 168.826 38.004 169.077 34.9222C169.294 33.2121 169.506 31.6733 171.445 30.8638L172.664 30.8941ZM165.649 53.5367C170.371 52.968 168.161 57.7166 167.948 59.2554C166.167 60.7551 162.864 60.3298 161.513 58.5805C161.555 56.866 161.772 55.1558 164.429 53.5064L165.649 53.5367ZM150.051 84.7152L147.802 83.973C145.439 83.1497 143.134 82.1754 140.9 81.0563C138.621 81.5143 137.444 79.7694 135.74 78.183L134.89 77.304C131.43 76.1886 129.73 74.4307 128.888 73.2088L128.034 72.5013C126.614 71.2689 125.25 69.9757 123.945 68.6253C120.894 65.1182 118.888 61.6371 116.534 58.1474L114.005 54.6533C112.479 52.8997 111.17 49.436 110.741 45.651C109.908 41.9005 109.303 38.1045 108.932 34.2832L108.987 32.0543C109.825 26.4137 112.031 21.8366 115.589 19.0087C114.424 23.7833 113.459 27.5335 113.182 31.644L113.14 33.3586C114.015 40.2426 118.243 45.4946 118.447 51.3327L119.276 53.0689L120.279 54.8094C122 55.71 121.745 58.9633 125.349 61.2832L126.7 63.0324L129.425 65.6736L130.453 66.3855C135.63 68.573 138.759 68.994 140.042 73.4864L141.245 74.2026C143.901 75.7234 146.665 77.0535 149.516 78.1827L151.246 78.7404C157.086 82.3169 163.729 81.6245 170.623 84.8841L172.353 85.4418L187.404 90.2769C187.927 90.2899 188.267 90.6415 188.785 90.8259C195.526 93.224 199.964 97.1087 206.259 96.4076L207.989 96.9653L221.139 101.067L222.695 101.62C229.416 105.023 236.669 107.291 244.151 108.33C254.543 111.162 264.281 112.262 273.734 117.816L277.538 119.112C281.865 120.42 286.914 120.717 292.16 120.162C293.031 120.183 293.728 120.201 294.434 119.875C296.759 117.531 299.632 121.205 301.447 118.334C302.319 118.356 303.199 118.035 303.904 117.709C317.791 113.251 330.943 103.285 333.729 89.458C334.391 92.7509 334.306 96.1464 333.481 99.4022C331.538 107.417 324.749 113.939 314.858 119.011L309.217 121.444L307.109 122.078C300.945 124.498 295.644 127.282 289.418 125.24L287.148 125.355C281.915 125.397 276.696 124.924 272.373 123.444L269.602 122.688C261.428 121.799 255.465 116.16 246.594 115.253L242.786 114.129L238.982 112.834L236.559 112.087C231.374 110.243 228.284 108.279 223.936 107.827L222.197 107.612L220.986 107.239L204.724 102.031L202.475 101.289L200.745 100.731C197.587 101.51 193.146 97.7968 190.37 97.213L188.636 96.8268L186.213 96.0802L169.258 90.6831C168.561 90.6657 168.047 90.3098 167.354 90.121C161.327 88.943 155.462 87.0695 149.881 84.5394L150.051 84.7152ZM165.882 100.206C164.153 99.6486 163.311 98.4267 163.354 96.7122L163.375 95.855L163.566 95.1735L165.815 95.9157C166.678 96.2803 167.541 96.6449 168.756 96.8467L169.449 97.0355L171.179 97.5932L170.639 98.266L170.278 98.7717C169.678 101.845 168.543 98.3854 166.75 100.399L165.878 100.378L165.891 99.8634L165.882 100.206ZM254.639 128.321C252.918 127.42 251.18 127.205 251.741 125.675C251.551 124.872 251.633 124.031 251.975 123.279L259.592 125.527L259.222 126.376C259.179 128.09 257.611 128.051 255.681 128.518L254.635 128.492L254.639 128.321Z" fill="black"/>
</svg>
